<svg width="299" height="72" viewBox="0 0 299 72" fill="none" xmlns="http://www.w3.org/2000/svg">
<g clip-path="url(#clip0_3151_1636)">
<path d="M91.248 35.2918C91.3913 38.0763 93.9472 40.1164 98.0438 40.1164C101.513 40.1164 103.974 38.6756 103.974 36.4964C103.974 33.5241 101.275 33.2941 97.6139 32.8764C92.1198 32.2287 87.7366 31.1572 87.7366 26.2418C87.7366 21.9257 91.8332 19.0987 97.375 19.1411C102.965 19.1895 107.013 21.6957 107.396 26.6111H103.347C103.06 24.2018 100.743 22.3918 97.369 22.3918C93.995 22.3918 91.6361 23.7841 91.6361 25.9634C91.6361 28.5603 94.2398 28.8872 97.805 29.3049C103.395 29.9526 107.879 30.9756 107.879 36.2179C107.879 40.6249 103.496 43.361 98.0498 43.361C91.6899 43.361 87.3066 40.4856 87.2051 35.2857H91.2539L91.248 35.2918Z" fill="#231F20"/>
<path d="M110.208 19.4197H114.401L121.967 38.3065L129.294 19.4197H133.486L122.164 47.078C120.623 50.8856 119.71 52.3687 116.24 52.3687H111.516V48.888H115.034C117.297 48.888 117.685 48.3311 118.599 46.1034L119.805 43.228L110.214 19.4197H110.208Z" fill="#231F20"/>
<path d="M174.368 29.4441V43.0887H170.415V29.6742C170.415 25.0372 168.295 22.6219 164.587 22.6219C160.49 22.6219 157.982 25.5941 157.982 30.4187V43.0887H154.028V29.6742C154.028 25.0372 151.861 22.6219 148.105 22.6219C144.056 22.6219 141.601 25.8726 141.601 30.6064V43.0887H137.648V19.4196H141.07L141.601 22.6703C142.903 20.9511 144.975 19.1411 148.779 19.1411C152.201 19.1411 155.139 20.6242 156.537 23.6388C158.03 21.0903 160.681 19.1411 165.064 19.1411C170.17 19.1411 174.362 21.9741 174.362 29.4441H174.368Z" fill="#231F20"/>
<path d="M205.07 31.2541C205.07 38.4941 200.06 43.3671 193.264 43.3671C189.12 43.3671 186.325 41.7448 184.832 39.4687L184.301 43.0886H180.879V10.6057H184.832V23.2272C186.468 21.0479 189.12 19.1411 193.264 19.1411C200.06 19.1411 205.07 23.548 205.07 31.2541ZM201.022 31.2541C201.022 26.1026 197.743 22.5311 192.876 22.5311C188.009 22.5311 184.778 26.1026 184.778 31.1633C184.778 36.224 188.057 39.9772 192.876 39.9772C197.695 39.9772 201.022 36.4056 201.022 31.2541Z" fill="#231F20"/>
<path d="M210.074 12.9726C210.074 11.5319 211.179 10.5149 212.63 10.5149C214.081 10.5149 215.186 11.5379 215.186 12.9726C215.186 14.4073 214.075 15.4303 212.63 15.4303C211.185 15.4303 210.074 14.4073 210.074 12.9726ZM210.606 19.4195H214.559V43.0886H210.606V19.4195Z" fill="#231F20"/>
<path d="M219.986 31.2541C219.986 24.0626 224.997 19.1411 232.175 19.1411C239.353 19.1411 244.363 24.0626 244.363 31.2541C244.363 38.4456 239.353 43.3671 232.175 43.3671C224.997 43.3671 219.986 38.4456 219.986 31.2541ZM240.32 31.2541C240.32 26.1934 237.042 22.5311 232.175 22.5311C227.308 22.5311 224.029 26.1995 224.029 31.2541C224.029 36.3088 227.308 39.9772 232.175 39.9772C237.042 39.9772 240.32 36.3088 240.32 31.2541Z" fill="#231F20"/>
<path d="M251.286 22.9003H246.854V19.4195H251.286V12.7849H255.239V19.4195H261.599V22.9003H255.239V36.8656C255.239 38.8633 255.961 39.6018 258.081 39.6018H261.987V43.0825H257.699C252.976 43.0825 251.292 41.0849 251.292 36.908V22.8942L251.286 22.9003Z" fill="#231F20"/>
<path d="M265.833 12.9726C265.833 11.5319 266.938 10.5149 268.389 10.5149C269.84 10.5149 270.945 11.5379 270.945 12.9726C270.945 14.4073 269.834 15.4303 268.389 15.4303C266.944 15.4303 265.833 14.4073 265.833 12.9726ZM266.365 19.4195H270.318V43.0886H266.365V19.4195Z" fill="#231F20"/>
<path d="M275.745 31.3024C275.745 24.0624 280.612 19.147 287.742 19.147C293.768 19.147 297.572 22.3977 298.587 27.5916H294.443C293.72 24.4377 291.308 22.5309 287.695 22.5309C282.971 22.5309 279.794 26.1508 279.794 31.3024C279.794 36.4539 282.977 39.983 287.695 39.983C291.212 39.983 293.619 38.0338 294.395 35.0192H298.587C297.626 40.1223 293.625 43.373 287.647 43.373C280.469 43.373 275.745 38.6876 275.745 31.3084V31.3024Z" fill="#231F20"/>
<path d="M210.522 68.3499C210.522 70.4989 208.665 72.0001 206.001 72.0001C203.069 72.0001 201.11 70.3778 201.015 67.8717L201.003 67.6477H202.986L203.003 67.8474C203.117 69.3003 204.299 70.2446 206.019 70.2446C207.261 70.2446 208.587 69.7785 208.587 68.4831C208.587 67.2542 207.345 66.9576 205.446 66.6488C203.398 66.3159 201.307 65.6561 201.307 63.2347C201.307 61.122 203.057 59.6995 205.655 59.6995C208.253 59.6995 210.217 61.1765 210.367 63.4526L210.379 63.6887H208.402L208.378 63.495C208.217 62.2359 207.172 61.455 205.655 61.455C204.138 61.455 203.242 62.0906 203.242 63.1499C203.242 64.3183 204.419 64.5967 206.348 64.9176C208.288 65.2263 210.522 65.8982 210.522 68.3499Z" fill="#231F20"/>
<path d="M223.122 70.1234V71.8971H214.755V59.8022H222.901V61.5699H216.69V64.8629H221.862V66.6366H216.69V70.1234H223.122Z" fill="#231F20"/>
<path d="M235.353 67.6477H237.366L237.318 67.908C236.846 70.4323 234.78 72.0001 231.92 72.0001C228.354 72.0001 226.049 69.5848 226.049 65.8498C226.049 62.1148 228.456 59.6995 232.039 59.6995C234.84 59.6995 236.864 61.2673 237.336 63.7916L237.384 64.0519H235.371L235.323 63.8945C234.882 62.3569 233.657 61.4731 231.973 61.4731C229.608 61.4731 228.02 63.2286 228.02 65.8498C228.02 68.4709 229.543 70.2265 231.902 70.2265C233.669 70.2265 234.876 69.3669 235.306 67.8051L235.353 67.6477Z" fill="#231F20"/>
<path d="M250.933 59.8022V66.6971C250.933 70.1658 249.255 72 246.084 72C242.913 72 241.271 70.1658 241.271 66.6971V59.8022H243.205V66.7819C243.205 69.1004 244.149 70.2263 246.084 70.2263C248.019 70.2263 248.998 69.1004 248.998 66.7819V59.8022H250.933Z" fill="#231F20"/>
<path d="M262.219 67.0483C263.73 66.5277 264.692 65.2019 264.692 63.5978C264.692 61.3277 262.984 59.8022 260.446 59.8022H255.597V71.8971H257.532V67.4175H260.237L262.793 71.8971H264.984L262.219 67.0483ZM257.532 61.5699H260.344C261.783 61.5699 262.721 62.3689 262.721 63.5978C262.721 64.8266 261.777 65.6438 260.326 65.6438H257.532V61.5699Z" fill="#231F20"/>
<path d="M270.818 59.8022H268.883V71.8971H270.818V59.8022Z" fill="#231F20"/>
<path d="M284.22 59.8022V61.5699H280.297V71.8971H278.362V61.5699H274.438V59.8022H284.22Z" fill="#231F20"/>
<path d="M298.587 59.8022L293.845 67.4296V71.8971H291.911V67.4296L287.169 59.8022H289.444L292.89 65.3896L296.383 59.8022H298.587Z" fill="#231F20"/>
<path d="M47.8995 48.5546C48.1265 49.9227 48.1145 51.3271 47.8338 52.6891C47.4218 54.7655 46.4245 56.7329 44.842 58.337L40.393 62.8469C36.0934 67.2054 29.1243 67.2054 24.8246 62.8469L15.4549 53.349L16.4104 52.3804C17.8974 52.3804 18.7334 52.3804 20.2204 52.3804L27.6851 59.9472C30.4023 62.7016 34.8154 62.7016 37.5326 59.9472L41.9815 55.4374C43.576 53.8211 44.2329 51.6177 43.9522 49.5111C43.9343 49.3295 43.8985 49.1479 43.8626 48.9784C43.8447 48.8876 43.8328 48.7968 43.8029 48.712C43.7671 48.5788 43.7312 48.4456 43.6954 48.3185C43.6596 48.1914 43.6118 48.0582 43.564 47.9372C43.4685 47.6769 43.349 47.4166 43.2236 47.1684C43.1699 47.0655 43.1161 46.9626 43.0564 46.8596C42.943 46.6599 42.8176 46.4662 42.6802 46.2785H42.6742C42.6026 46.1756 42.5369 46.0787 42.4593 45.9879C42.3876 45.8971 42.31 45.8063 42.2323 45.7155C42.1487 45.6247 42.0711 45.54 41.9875 45.4492L36.9055 40.2977L39.766 37.3981L44.848 42.5496C47.5651 45.3039 51.9782 45.3039 54.6954 42.5496L59.1444 38.0397C61.8615 35.2854 61.8615 30.8119 59.1444 28.0576L54.6954 23.5477C51.9782 20.7934 47.5651 20.7934 44.848 23.5477L23.2421 45.4492C23.0271 45.6671 22.8062 45.8729 22.5792 46.0666C21.0326 47.3984 19.2171 48.2277 17.3241 48.5546C13.9262 49.1479 10.2953 48.1127 7.67372 45.4552L3.22475 40.9454C-1.07492 36.5869 -1.07492 29.5225 3.22475 25.164L7.67372 20.6542C10.2953 17.9967 13.9202 16.9615 17.3241 17.5548C17.0972 16.1867 17.1091 14.7823 17.3898 13.4203C17.8018 11.3439 18.7991 9.37654 20.3816 7.77237L24.8306 3.26253C29.1303 -1.09597 36.0993 -1.09597 40.399 3.26253L49.7687 12.7604L48.8132 13.729C47.3262 13.729 46.4902 13.729 45.0032 13.729L37.5385 6.16214C34.8214 3.40781 30.4082 3.40781 27.6911 6.16214L23.2421 10.672C21.6715 12.264 21.0087 14.4312 21.2595 16.5015V16.5378L21.2714 16.5983C21.2714 16.6649 21.2893 16.7376 21.3013 16.8041C21.3013 16.8163 21.3013 16.8223 21.3013 16.8344C21.3013 16.8586 21.3073 16.8768 21.3132 16.9071C21.3132 16.9071 21.3132 16.9131 21.3132 16.9192C21.3252 16.9918 21.3431 17.0644 21.355 17.1371C21.3729 17.2279 21.3849 17.3187 21.4148 17.4034C21.4446 17.5366 21.4804 17.6698 21.5222 17.7969C21.5581 17.924 21.6058 18.0572 21.6536 18.1783C21.7014 18.3115 21.7492 18.4386 21.8149 18.5657C21.8686 18.6989 21.9283 18.826 21.994 18.9471C22.0478 19.05 22.1015 19.1529 22.1612 19.2558C22.2747 19.4556 22.4001 19.6493 22.5374 19.8369H22.5434C22.6151 19.9398 22.6808 20.0367 22.7584 20.1275C22.8301 20.2183 22.9077 20.3091 22.9853 20.3999C23.0689 20.4907 23.1466 20.5755 23.2302 20.6663L28.3121 25.8178L25.4517 28.7174L20.3697 23.5659C17.6525 20.8115 13.2394 20.8115 10.5223 23.5659L6.07329 28.0757C3.35613 30.83 3.35613 35.3036 6.07329 38.0579L10.5223 42.5677C13.2394 45.3221 17.6525 45.3221 20.3697 42.5677L19.7367 43.2094L19.7665 43.2397C19.9576 43.0096 20.1607 42.7796 20.3757 42.5677L41.9815 20.6663C43.6536 18.9713 45.7318 17.9422 47.8995 17.5669C51.2975 16.9736 54.9283 18.0088 57.5499 20.6663L61.9989 25.1761C66.2985 29.5346 66.2985 36.599 61.9989 40.9575L57.5499 45.4673C54.9283 48.1248 51.3034 49.16 47.8995 48.5667V48.5546Z" fill="#231F20"/>
</g>
<defs>
<clipPath id="clip0_3151_1636">
<rect width="298.588" height="72" fill="white"/>
</clipPath>
</defs>
</svg>
