<svg width="24" height="24" viewBox="0 0 24 24" fill="none" xmlns="http://www.w3.org/2000/svg">
<path d="M8.516 6.8C8.452 6.752 8.396 6.696 8.348 6.632C8.316 6.568 8.3 6.504 8.3 6.44C8.3 6.376 8.316 6.312 8.348 6.248C8.396 6.184 8.452 6.128 8.516 6.08C8.644 6 8.812 5.96 9.02 5.96C9.244 5.96 9.412 6 9.524 6.08C9.588 6.128 9.636 6.184 9.668 6.248C9.716 6.312 9.74 6.376 9.74 6.44C9.74 6.584 9.668 6.704 9.524 6.8C9.46 6.832 9.38 6.864 9.284 6.896C9.204 6.912 9.116 6.92 9.02 6.92C8.844 6.92 8.676 6.88 8.516 6.8ZM10.436 7.76C10.372 7.712 10.316 7.656 10.268 7.592C10.236 7.528 10.22 7.464 10.22 7.4C10.22 7.336 10.236 7.272 10.268 7.208C10.316 7.144 10.372 7.088 10.436 7.04C10.564 6.96 10.732 6.92 10.94 6.92C11.164 6.92 11.332 6.96 11.444 7.04C11.508 7.088 11.556 7.144 11.588 7.208C11.636 7.272 11.66 7.336 11.66 7.4C11.66 7.544 11.588 7.664 11.444 7.76C11.38 7.792 11.3 7.824 11.204 7.856C11.124 7.872 11.036 7.88 10.94 7.88C10.764 7.88 10.596 7.84 10.436 7.76ZM12.356 7.76C12.292 7.712 12.236 7.656 12.188 7.592C12.156 7.528 12.14 7.464 12.14 7.4C12.14 7.336 12.156 7.272 12.188 7.208C12.236 7.144 12.292 7.088 12.356 7.04C12.484 6.96 12.652 6.92 12.86 6.92C13.084 6.92 13.252 6.96 13.364 7.04C13.428 7.088 13.476 7.144 13.508 7.208C13.556 7.272 13.58 7.336 13.58 7.4C13.58 7.544 13.508 7.664 13.364 7.76C13.3 7.792 13.22 7.824 13.124 7.856C13.044 7.872 12.956 7.88 12.86 7.88C12.684 7.88 12.516 7.84 12.356 7.76ZM14.276 6.8C14.212 6.752 14.156 6.696 14.108 6.632C14.076 6.568 14.06 6.504 14.06 6.44C14.06 6.376 14.076 6.312 14.108 6.248C14.156 6.184 14.212 6.128 14.276 6.08C14.404 6 14.572 5.96 14.78 5.96C15.004 5.96 15.172 6 15.284 6.08C15.348 6.128 15.396 6.184 15.428 6.248C15.476 6.312 15.5 6.376 15.5 6.44C15.5 6.584 15.428 6.704 15.284 6.8C15.22 6.832 15.14 6.864 15.044 6.896C14.964 6.912 14.876 6.92 14.78 6.92C14.604 6.92 14.436 6.88 14.276 6.8ZM10.436 9.68C10.372 9.632 10.316 9.576 10.268 9.512C10.236 9.448 10.22 9.384 10.22 9.32C10.22 9.256 10.236 9.192 10.268 9.128C10.316 9.064 10.372 9.008 10.436 8.96C10.564 8.88 10.732 8.84 10.94 8.84C11.164 8.84 11.332 8.88 11.444 8.96C11.508 9.008 11.556 9.064 11.588 9.128C11.636 9.192 11.66 9.256 11.66 9.32C11.66 9.464 11.588 9.584 11.444 9.68C11.38 9.712 11.3 9.744 11.204 9.776C11.124 9.792 11.036 9.8 10.94 9.8C10.764 9.8 10.596 9.76 10.436 9.68ZM8.516 10.64C8.452 10.592 8.396 10.536 8.348 10.472C8.316 10.408 8.3 10.344 8.3 10.28C8.3 10.216 8.316 10.152 8.348 10.088C8.396 10.024 8.452 9.968 8.516 9.92C8.644 9.84 8.812 9.8 9.02 9.8C9.244 9.8 9.412 9.84 9.524 9.92C9.588 9.968 9.636 10.024 9.668 10.088C9.716 10.152 9.74 10.216 9.74 10.28C9.74 10.424 9.668 10.544 9.524 10.64C9.46 10.672 9.38 10.704 9.284 10.736C9.204 10.752 9.116 10.76 9.02 10.76C8.844 10.76 8.676 10.72 8.516 10.64ZM12.356 9.68C12.292 9.632 12.236 9.576 12.188 9.512C12.156 9.448 12.14 9.384 12.14 9.32C12.14 9.256 12.156 9.192 12.188 9.128C12.236 9.064 12.292 9.008 12.356 8.96C12.484 8.88 12.652 8.84 12.86 8.84C13.084 8.84 13.252 8.88 13.364 8.96C13.428 9.008 13.476 9.064 13.508 9.128C13.556 9.192 13.58 9.256 13.58 9.32C13.58 9.464 13.508 9.584 13.364 9.68C13.3 9.712 13.22 9.744 13.124 9.776C13.044 9.792 12.956 9.8 12.86 9.8C12.684 9.8 12.516 9.76 12.356 9.68ZM14.276 10.64C14.212 10.592 14.156 10.536 14.108 10.472C14.076 10.408 14.06 10.344 14.06 10.28C14.06 10.216 14.076 10.152 14.108 10.088C14.156 10.024 14.212 9.968 14.276 9.92C14.404 9.84 14.572 9.8 14.78 9.8C15.004 9.8 15.172 9.84 15.284 9.92C15.348 9.968 15.396 10.024 15.428 10.088C15.476 10.152 15.5 10.216 15.5 10.28C15.5 10.424 15.428 10.544 15.284 10.64C15.22 10.672 15.14 10.704 15.044 10.736C14.964 10.752 14.876 10.76 14.78 10.76C14.604 10.76 14.436 10.72 14.276 10.64ZM11.396 8.72C11.332 8.672 11.276 8.616 11.228 8.552C11.196 8.488 11.18 8.424 11.18 8.36C11.18 8.296 11.196 8.232 11.228 8.168C11.276 8.104 11.332 8.048 11.396 8C11.524 7.92 11.692 7.88 11.9 7.88C12.124 7.88 12.292 7.92 12.404 8C12.468 8.048 12.516 8.104 12.548 8.168C12.596 8.232 12.62 8.296 12.62 8.36C12.62 8.504 12.548 8.624 12.404 8.72C12.34 8.752 12.26 8.784 12.164 8.816C12.084 8.832 11.996 8.84 11.9 8.84C11.724 8.84 11.556 8.8 11.396 8.72ZM11.396 10.64C11.332 10.592 11.276 10.536 11.228 10.472C11.196 10.408 11.18 10.344 11.18 10.28C11.18 10.216 11.196 10.152 11.228 10.088C11.276 10.024 11.332 9.968 11.396 9.92C11.524 9.84 11.692 9.8 11.9 9.8C12.124 9.8 12.292 9.84 12.404 9.92C12.468 9.968 12.516 10.024 12.548 10.088C12.596 10.152 12.62 10.216 12.62 10.28C12.62 10.424 12.548 10.544 12.404 10.64C12.34 10.672 12.26 10.704 12.164 10.736C12.084 10.752 11.996 10.76 11.9 10.76C11.724 10.76 11.556 10.72 11.396 10.64ZM11.396 11.6C11.332 11.552 11.276 11.496 11.228 11.432C11.196 11.368 11.18 11.304 11.18 11.24C11.18 11.176 11.196 11.112 11.228 11.048C11.276 10.984 11.332 10.928 11.396 10.88C11.524 10.8 11.692 10.76 11.9 10.76C12.124 10.76 12.292 10.8 12.404 10.88C12.468 10.928 12.516 10.984 12.548 11.048C12.596 11.112 12.62 11.176 12.62 11.24C12.62 11.384 12.548 11.504 12.404 11.6C12.34 11.632 12.26 11.664 12.164 11.696C12.084 11.712 11.996 11.72 11.9 11.72C11.724 11.72 11.556 11.68 11.396 11.6ZM11.396 6.8C11.332 6.752 11.276 6.696 11.228 6.632C11.196 6.568 11.18 6.504 11.18 6.44C11.18 6.376 11.196 6.312 11.228 6.248C11.276 6.184 11.332 6.128 11.396 6.08C11.524 6 11.692 5.96 11.9 5.96C12.124 5.96 12.292 6 12.404 6.08C12.468 6.128 12.516 6.184 12.548 6.248C12.596 6.312 12.62 6.376 12.62 6.44C12.62 6.584 12.548 6.704 12.404 6.8C12.34 6.832 12.26 6.864 12.164 6.896C12.084 6.912 11.996 6.92 11.9 6.92C11.724 6.92 11.556 6.88 11.396 6.8ZM11.396 5.84C11.332 5.792 11.276 5.736 11.228 5.672C11.196 5.608 11.18 5.544 11.18 5.48C11.18 5.416 11.196 5.352 11.228 5.288C11.276 5.224 11.332 5.168 11.396 5.12C11.524 5.04 11.692 5 11.9 5C12.124 5 12.292 5.04 12.404 5.12C12.468 5.168 12.516 5.224 12.548 5.288C12.596 5.352 12.62 5.416 12.62 5.48C12.62 5.624 12.548 5.744 12.404 5.84C12.34 5.872 12.26 5.904 12.164 5.936C12.084 5.952 11.996 5.96 11.9 5.96C11.724 5.96 11.556 5.92 11.396 5.84ZM9.476 9.68C9.412 9.632 9.356 9.576 9.308 9.512C9.276 9.448 9.26 9.384 9.26 9.32C9.26 9.256 9.276 9.192 9.308 9.128C9.356 9.064 9.412 9.008 9.476 8.96C9.604 8.88 9.772 8.84 9.98 8.84C10.204 8.84 10.372 8.88 10.484 8.96C10.548 9.008 10.596 9.064 10.628 9.128C10.676 9.192 10.7 9.256 10.7 9.32C10.7 9.464 10.628 9.584 10.484 9.68C10.42 9.712 10.34 9.744 10.244 9.776C10.164 9.792 10.076 9.8 9.98 9.8C9.804 9.8 9.636 9.76 9.476 9.68ZM13.316 9.68C13.252 9.632 13.196 9.576 13.148 9.512C13.116 9.448 13.1 9.384 13.1 9.32C13.1 9.256 13.116 9.192 13.148 9.128C13.196 9.064 13.252 9.008 13.316 8.96C13.444 8.88 13.612 8.84 13.82 8.84C14.044 8.84 14.212 8.88 14.324 8.96C14.388 9.008 14.436 9.064 14.468 9.128C14.516 9.192 14.54 9.256 14.54 9.32C14.54 9.464 14.468 9.584 14.324 9.68C14.26 9.712 14.18 9.744 14.084 9.776C14.004 9.792 13.916 9.8 13.82 9.8C13.644 9.8 13.476 9.76 13.316 9.68ZM13.316 7.76C13.252 7.712 13.196 7.656 13.148 7.592C13.116 7.528 13.1 7.464 13.1 7.4C13.1 7.336 13.116 7.272 13.148 7.208C13.196 7.144 13.252 7.088 13.316 7.04C13.444 6.96 13.612 6.92 13.82 6.92C14.044 6.92 14.212 6.96 14.324 7.04C14.388 7.088 14.436 7.144 14.468 7.208C14.516 7.272 14.54 7.336 14.54 7.4C14.54 7.544 14.468 7.664 14.324 7.76C14.26 7.792 14.18 7.824 14.084 7.856C14.004 7.872 13.916 7.88 13.82 7.88C13.644 7.88 13.476 7.84 13.316 7.76ZM9.476 7.76C9.412 7.712 9.356 7.656 9.308 7.592C9.276 7.528 9.26 7.464 9.26 7.4C9.26 7.336 9.276 7.272 9.308 7.208C9.356 7.144 9.412 7.088 9.476 7.04C9.604 6.96 9.772 6.92 9.98 6.92C10.204 6.92 10.372 6.96 10.484 7.04C10.548 7.088 10.596 7.144 10.628 7.208C10.676 7.272 10.7 7.336 10.7 7.4C10.7 7.544 10.628 7.664 10.484 7.76C10.42 7.792 10.34 7.824 10.244 7.856C10.164 7.872 10.076 7.88 9.98 7.88C9.804 7.88 9.636 7.84 9.476 7.76ZM10.436 8.72C10.372 8.672 10.316 8.616 10.268 8.552C10.236 8.488 10.22 8.424 10.22 8.36C10.22 8.296 10.236 8.232 10.268 8.168C10.316 8.104 10.372 8.048 10.436 8C10.564 7.92 10.732 7.88 10.94 7.88C11.164 7.88 11.332 7.92 11.444 8C11.508 8.048 11.556 8.104 11.588 8.168C11.636 8.232 11.66 8.296 11.66 8.36C11.66 8.504 11.588 8.624 11.444 8.72C11.38 8.752 11.3 8.784 11.204 8.816C11.124 8.832 11.036 8.84 10.94 8.84C10.764 8.84 10.596 8.8 10.436 8.72ZM12.356 8.72C12.292 8.672 12.236 8.616 12.188 8.552C12.156 8.488 12.14 8.424 12.14 8.36C12.14 8.296 12.156 8.232 12.188 8.168C12.236 8.104 12.292 8.048 12.356 8C12.484 7.92 12.652 7.88 12.86 7.88C13.084 7.88 13.252 7.92 13.364 8C13.428 8.048 13.476 8.104 13.508 8.168C13.556 8.232 13.58 8.296 13.58 8.36C13.58 8.504 13.508 8.624 13.364 8.72C13.3 8.752 13.22 8.784 13.124 8.816C13.044 8.832 12.956 8.84 12.86 8.84C12.684 8.84 12.516 8.8 12.356 8.72ZM3.716 14.48C3.652 14.432 3.596 14.376 3.548 14.312C3.516 14.248 3.5 14.184 3.5 14.12C3.5 14.056 3.516 13.992 3.548 13.928C3.596 13.864 3.652 13.808 3.716 13.76C3.844 13.68 4.012 13.64 4.22 13.64C4.444 13.64 4.612 13.68 4.724 13.76C4.788 13.808 4.836 13.864 4.868 13.928C4.916 13.992 4.94 14.056 4.94 14.12C4.94 14.264 4.868 14.384 4.724 14.48C4.66 14.512 4.58 14.544 4.484 14.576C4.404 14.592 4.316 14.6 4.22 14.6C4.044 14.6 3.876 14.56 3.716 14.48ZM5.636 15.44C5.572 15.392 5.516 15.336 5.468 15.272C5.436 15.208 5.42 15.144 5.42 15.08C5.42 15.016 5.436 14.952 5.468 14.888C5.516 14.824 5.572 14.768 5.636 14.72C5.764 14.64 5.932 14.6 6.14 14.6C6.364 14.6 6.532 14.64 6.644 14.72C6.708 14.768 6.756 14.824 6.788 14.888C6.836 14.952 6.86 15.016 6.86 15.08C6.86 15.224 6.788 15.344 6.644 15.44C6.58 15.472 6.5 15.504 6.404 15.536C6.324 15.552 6.236 15.56 6.14 15.56C5.964 15.56 5.796 15.52 5.636 15.44ZM7.556 15.44C7.492 15.392 7.436 15.336 7.388 15.272C7.356 15.208 7.34 15.144 7.34 15.08C7.34 15.016 7.356 14.952 7.388 14.888C7.436 14.824 7.492 14.768 7.556 14.72C7.684 14.64 7.852 14.6 8.06 14.6C8.284 14.6 8.452 14.64 8.564 14.72C8.628 14.768 8.676 14.824 8.708 14.888C8.756 14.952 8.78 15.016 8.78 15.08C8.78 15.224 8.708 15.344 8.564 15.44C8.5 15.472 8.42 15.504 8.324 15.536C8.244 15.552 8.156 15.56 8.06 15.56C7.884 15.56 7.716 15.52 7.556 15.44ZM9.476 14.48C9.412 14.432 9.356 14.376 9.308 14.312C9.276 14.248 9.26 14.184 9.26 14.12C9.26 14.056 9.276 13.992 9.308 13.928C9.356 13.864 9.412 13.808 9.476 13.76C9.604 13.68 9.772 13.64 9.98 13.64C10.204 13.64 10.372 13.68 10.484 13.76C10.548 13.808 10.596 13.864 10.628 13.928C10.676 13.992 10.7 14.056 10.7 14.12C10.7 14.264 10.628 14.384 10.484 14.48C10.42 14.512 10.34 14.544 10.244 14.576C10.164 14.592 10.076 14.6 9.98 14.6C9.804 14.6 9.636 14.56 9.476 14.48ZM5.636 17.36C5.572 17.312 5.516 17.256 5.468 17.192C5.436 17.128 5.42 17.064 5.42 17C5.42 16.936 5.436 16.872 5.468 16.808C5.516 16.744 5.572 16.688 5.636 16.64C5.764 16.56 5.932 16.52 6.14 16.52C6.364 16.52 6.532 16.56 6.644 16.64C6.708 16.688 6.756 16.744 6.788 16.808C6.836 16.872 6.86 16.936 6.86 17C6.86 17.144 6.788 17.264 6.644 17.36C6.58 17.392 6.5 17.424 6.404 17.456C6.324 17.472 6.236 17.48 6.14 17.48C5.964 17.48 5.796 17.44 5.636 17.36ZM3.716 18.32C3.652 18.272 3.596 18.216 3.548 18.152C3.516 18.088 3.5 18.024 3.5 17.96C3.5 17.896 3.516 17.832 3.548 17.768C3.596 17.704 3.652 17.648 3.716 17.6C3.844 17.52 4.012 17.48 4.22 17.48C4.444 17.48 4.612 17.52 4.724 17.6C4.788 17.648 4.836 17.704 4.868 17.768C4.916 17.832 4.94 17.896 4.94 17.96C4.94 18.104 4.868 18.224 4.724 18.32C4.66 18.352 4.58 18.384 4.484 18.416C4.404 18.432 4.316 18.44 4.22 18.44C4.044 18.44 3.876 18.4 3.716 18.32ZM7.556 17.36C7.492 17.312 7.436 17.256 7.388 17.192C7.356 17.128 7.34 17.064 7.34 17C7.34 16.936 7.356 16.872 7.388 16.808C7.436 16.744 7.492 16.688 7.556 16.64C7.684 16.56 7.852 16.52 8.06 16.52C8.284 16.52 8.452 16.56 8.564 16.64C8.628 16.688 8.676 16.744 8.708 16.808C8.756 16.872 8.78 16.936 8.78 17C8.78 17.144 8.708 17.264 8.564 17.36C8.5 17.392 8.42 17.424 8.324 17.456C8.244 17.472 8.156 17.48 8.06 17.48C7.884 17.48 7.716 17.44 7.556 17.36ZM9.476 18.32C9.412 18.272 9.356 18.216 9.308 18.152C9.276 18.088 9.26 18.024 9.26 17.96C9.26 17.896 9.276 17.832 9.308 17.768C9.356 17.704 9.412 17.648 9.476 17.6C9.604 17.52 9.772 17.48 9.98 17.48C10.204 17.48 10.372 17.52 10.484 17.6C10.548 17.648 10.596 17.704 10.628 17.768C10.676 17.832 10.7 17.896 10.7 17.96C10.7 18.104 10.628 18.224 10.484 18.32C10.42 18.352 10.34 18.384 10.244 18.416C10.164 18.432 10.076 18.44 9.98 18.44C9.804 18.44 9.636 18.4 9.476 18.32ZM6.596 16.4C6.532 16.352 6.476 16.296 6.428 16.232C6.396 16.168 6.38 16.104 6.38 16.04C6.38 15.976 6.396 15.912 6.428 15.848C6.476 15.784 6.532 15.728 6.596 15.68C6.724 15.6 6.892 15.56 7.1 15.56C7.324 15.56 7.492 15.6 7.604 15.68C7.668 15.728 7.716 15.784 7.748 15.848C7.796 15.912 7.82 15.976 7.82 16.04C7.82 16.184 7.748 16.304 7.604 16.4C7.54 16.432 7.46 16.464 7.364 16.496C7.284 16.512 7.196 16.52 7.1 16.52C6.924 16.52 6.756 16.48 6.596 16.4ZM6.596 18.32C6.532 18.272 6.476 18.216 6.428 18.152C6.396 18.088 6.38 18.024 6.38 17.96C6.38 17.896 6.396 17.832 6.428 17.768C6.476 17.704 6.532 17.648 6.596 17.6C6.724 17.52 6.892 17.48 7.1 17.48C7.324 17.48 7.492 17.52 7.604 17.6C7.668 17.648 7.716 17.704 7.748 17.768C7.796 17.832 7.82 17.896 7.82 17.96C7.82 18.104 7.748 18.224 7.604 18.32C7.54 18.352 7.46 18.384 7.364 18.416C7.284 18.432 7.196 18.44 7.1 18.44C6.924 18.44 6.756 18.4 6.596 18.32ZM6.596 19.28C6.532 19.232 6.476 19.176 6.428 19.112C6.396 19.048 6.38 18.984 6.38 18.92C6.38 18.856 6.396 18.792 6.428 18.728C6.476 18.664 6.532 18.608 6.596 18.56C6.724 18.48 6.892 18.44 7.1 18.44C7.324 18.44 7.492 18.48 7.604 18.56C7.668 18.608 7.716 18.664 7.748 18.728C7.796 18.792 7.82 18.856 7.82 18.92C7.82 19.064 7.748 19.184 7.604 19.28C7.54 19.312 7.46 19.344 7.364 19.376C7.284 19.392 7.196 19.4 7.1 19.4C6.924 19.4 6.756 19.36 6.596 19.28ZM6.596 14.48C6.532 14.432 6.476 14.376 6.428 14.312C6.396 14.248 6.38 14.184 6.38 14.12C6.38 14.056 6.396 13.992 6.428 13.928C6.476 13.864 6.532 13.808 6.596 13.76C6.724 13.68 6.892 13.64 7.1 13.64C7.324 13.64 7.492 13.68 7.604 13.76C7.668 13.808 7.716 13.864 7.748 13.928C7.796 13.992 7.82 14.056 7.82 14.12C7.82 14.264 7.748 14.384 7.604 14.48C7.54 14.512 7.46 14.544 7.364 14.576C7.284 14.592 7.196 14.6 7.1 14.6C6.924 14.6 6.756 14.56 6.596 14.48ZM6.596 13.52C6.532 13.472 6.476 13.416 6.428 13.352C6.396 13.288 6.38 13.224 6.38 13.16C6.38 13.096 6.396 13.032 6.428 12.968C6.476 12.904 6.532 12.848 6.596 12.8C6.724 12.72 6.892 12.68 7.1 12.68C7.324 12.68 7.492 12.72 7.604 12.8C7.668 12.848 7.716 12.904 7.748 12.968C7.796 13.032 7.82 13.096 7.82 13.16C7.82 13.304 7.748 13.424 7.604 13.52C7.54 13.552 7.46 13.584 7.364 13.616C7.284 13.632 7.196 13.64 7.1 13.64C6.924 13.64 6.756 13.6 6.596 13.52ZM4.676 17.36C4.612 17.312 4.556 17.256 4.508 17.192C4.476 17.128 4.46 17.064 4.46 17C4.46 16.936 4.476 16.872 4.508 16.808C4.556 16.744 4.612 16.688 4.676 16.64C4.804 16.56 4.972 16.52 5.18 16.52C5.404 16.52 5.572 16.56 5.684 16.64C5.748 16.688 5.796 16.744 5.828 16.808C5.876 16.872 5.9 16.936 5.9 17C5.9 17.144 5.828 17.264 5.684 17.36C5.62 17.392 5.54 17.424 5.444 17.456C5.364 17.472 5.276 17.48 5.18 17.48C5.004 17.48 4.836 17.44 4.676 17.36ZM8.516 17.36C8.452 17.312 8.396 17.256 8.348 17.192C8.316 17.128 8.3 17.064 8.3 17C8.3 16.936 8.316 16.872 8.348 16.808C8.396 16.744 8.452 16.688 8.516 16.64C8.644 16.56 8.812 16.52 9.02 16.52C9.244 16.52 9.412 16.56 9.524 16.64C9.588 16.688 9.636 16.744 9.668 16.808C9.716 16.872 9.74 16.936 9.74 17C9.74 17.144 9.668 17.264 9.524 17.36C9.46 17.392 9.38 17.424 9.284 17.456C9.204 17.472 9.116 17.48 9.02 17.48C8.844 17.48 8.676 17.44 8.516 17.36ZM8.516 15.44C8.452 15.392 8.396 15.336 8.348 15.272C8.316 15.208 8.3 15.144 8.3 15.08C8.3 15.016 8.316 14.952 8.348 14.888C8.396 14.824 8.452 14.768 8.516 14.72C8.644 14.64 8.812 14.6 9.02 14.6C9.244 14.6 9.412 14.64 9.524 14.72C9.588 14.768 9.636 14.824 9.668 14.888C9.716 14.952 9.74 15.016 9.74 15.08C9.74 15.224 9.668 15.344 9.524 15.44C9.46 15.472 9.38 15.504 9.284 15.536C9.204 15.552 9.116 15.56 9.02 15.56C8.844 15.56 8.676 15.52 8.516 15.44ZM4.676 15.44C4.612 15.392 4.556 15.336 4.508 15.272C4.476 15.208 4.46 15.144 4.46 15.08C4.46 15.016 4.476 14.952 4.508 14.888C4.556 14.824 4.612 14.768 4.676 14.72C4.804 14.64 4.972 14.6 5.18 14.6C5.404 14.6 5.572 14.64 5.684 14.72C5.748 14.768 5.796 14.824 5.828 14.888C5.876 14.952 5.9 15.016 5.9 15.08C5.9 15.224 5.828 15.344 5.684 15.44C5.62 15.472 5.54 15.504 5.444 15.536C5.364 15.552 5.276 15.56 5.18 15.56C5.004 15.56 4.836 15.52 4.676 15.44ZM5.636 16.4C5.572 16.352 5.516 16.296 5.468 16.232C5.436 16.168 5.42 16.104 5.42 16.04C5.42 15.976 5.436 15.912 5.468 15.848C5.516 15.784 5.572 15.728 5.636 15.68C5.764 15.6 5.932 15.56 6.14 15.56C6.364 15.56 6.532 15.6 6.644 15.68C6.708 15.728 6.756 15.784 6.788 15.848C6.836 15.912 6.86 15.976 6.86 16.04C6.86 16.184 6.788 16.304 6.644 16.4C6.58 16.432 6.5 16.464 6.404 16.496C6.324 16.512 6.236 16.52 6.14 16.52C5.964 16.52 5.796 16.48 5.636 16.4ZM7.556 16.4C7.492 16.352 7.436 16.296 7.388 16.232C7.356 16.168 7.34 16.104 7.34 16.04C7.34 15.976 7.356 15.912 7.388 15.848C7.436 15.784 7.492 15.728 7.556 15.68C7.684 15.6 7.852 15.56 8.06 15.56C8.284 15.56 8.452 15.6 8.564 15.68C8.628 15.728 8.676 15.784 8.708 15.848C8.756 15.912 8.78 15.976 8.78 16.04C8.78 16.184 8.708 16.304 8.564 16.4C8.5 16.432 8.42 16.464 8.324 16.496C8.244 16.512 8.156 16.52 8.06 16.52C7.884 16.52 7.716 16.48 7.556 16.4ZM13.316 14.48C13.252 14.432 13.196 14.376 13.148 14.312C13.116 14.248 13.1 14.184 13.1 14.12C13.1 14.056 13.116 13.992 13.148 13.928C13.196 13.864 13.252 13.808 13.316 13.76C13.444 13.68 13.612 13.64 13.82 13.64C14.044 13.64 14.212 13.68 14.324 13.76C14.388 13.808 14.436 13.864 14.468 13.928C14.516 13.992 14.54 14.056 14.54 14.12C14.54 14.264 14.468 14.384 14.324 14.48C14.26 14.512 14.18 14.544 14.084 14.576C14.004 14.592 13.916 14.6 13.82 14.6C13.644 14.6 13.476 14.56 13.316 14.48ZM15.236 15.44C15.172 15.392 15.116 15.336 15.068 15.272C15.036 15.208 15.02 15.144 15.02 15.08C15.02 15.016 15.036 14.952 15.068 14.888C15.116 14.824 15.172 14.768 15.236 14.72C15.364 14.64 15.532 14.6 15.74 14.6C15.964 14.6 16.132 14.64 16.244 14.72C16.308 14.768 16.356 14.824 16.388 14.888C16.436 14.952 16.46 15.016 16.46 15.08C16.46 15.224 16.388 15.344 16.244 15.44C16.18 15.472 16.1 15.504 16.004 15.536C15.924 15.552 15.836 15.56 15.74 15.56C15.564 15.56 15.396 15.52 15.236 15.44ZM17.156 15.44C17.092 15.392 17.036 15.336 16.988 15.272C16.956 15.208 16.94 15.144 16.94 15.08C16.94 15.016 16.956 14.952 16.988 14.888C17.036 14.824 17.092 14.768 17.156 14.72C17.284 14.64 17.452 14.6 17.66 14.6C17.884 14.6 18.052 14.64 18.164 14.72C18.228 14.768 18.276 14.824 18.308 14.888C18.356 14.952 18.38 15.016 18.38 15.08C18.38 15.224 18.308 15.344 18.164 15.44C18.1 15.472 18.02 15.504 17.924 15.536C17.844 15.552 17.756 15.56 17.66 15.56C17.484 15.56 17.316 15.52 17.156 15.44ZM19.076 14.48C19.012 14.432 18.956 14.376 18.908 14.312C18.876 14.248 18.86 14.184 18.86 14.12C18.86 14.056 18.876 13.992 18.908 13.928C18.956 13.864 19.012 13.808 19.076 13.76C19.204 13.68 19.372 13.64 19.58 13.64C19.804 13.64 19.972 13.68 20.084 13.76C20.148 13.808 20.196 13.864 20.228 13.928C20.276 13.992 20.3 14.056 20.3 14.12C20.3 14.264 20.228 14.384 20.084 14.48C20.02 14.512 19.94 14.544 19.844 14.576C19.764 14.592 19.676 14.6 19.58 14.6C19.404 14.6 19.236 14.56 19.076 14.48ZM15.236 17.36C15.172 17.312 15.116 17.256 15.068 17.192C15.036 17.128 15.02 17.064 15.02 17C15.02 16.936 15.036 16.872 15.068 16.808C15.116 16.744 15.172 16.688 15.236 16.64C15.364 16.56 15.532 16.52 15.74 16.52C15.964 16.52 16.132 16.56 16.244 16.64C16.308 16.688 16.356 16.744 16.388 16.808C16.436 16.872 16.46 16.936 16.46 17C16.46 17.144 16.388 17.264 16.244 17.36C16.18 17.392 16.1 17.424 16.004 17.456C15.924 17.472 15.836 17.48 15.74 17.48C15.564 17.48 15.396 17.44 15.236 17.36ZM13.316 18.32C13.252 18.272 13.196 18.216 13.148 18.152C13.116 18.088 13.1 18.024 13.1 17.96C13.1 17.896 13.116 17.832 13.148 17.768C13.196 17.704 13.252 17.648 13.316 17.6C13.444 17.52 13.612 17.48 13.82 17.48C14.044 17.48 14.212 17.52 14.324 17.6C14.388 17.648 14.436 17.704 14.468 17.768C14.516 17.832 14.54 17.896 14.54 17.96C14.54 18.104 14.468 18.224 14.324 18.32C14.26 18.352 14.18 18.384 14.084 18.416C14.004 18.432 13.916 18.44 13.82 18.44C13.644 18.44 13.476 18.4 13.316 18.32ZM17.156 17.36C17.092 17.312 17.036 17.256 16.988 17.192C16.956 17.128 16.94 17.064 16.94 17C16.94 16.936 16.956 16.872 16.988 16.808C17.036 16.744 17.092 16.688 17.156 16.64C17.284 16.56 17.452 16.52 17.66 16.52C17.884 16.52 18.052 16.56 18.164 16.64C18.228 16.688 18.276 16.744 18.308 16.808C18.356 16.872 18.38 16.936 18.38 17C18.38 17.144 18.308 17.264 18.164 17.36C18.1 17.392 18.02 17.424 17.924 17.456C17.844 17.472 17.756 17.48 17.66 17.48C17.484 17.48 17.316 17.44 17.156 17.36ZM19.076 18.32C19.012 18.272 18.956 18.216 18.908 18.152C18.876 18.088 18.86 18.024 18.86 17.96C18.86 17.896 18.876 17.832 18.908 17.768C18.956 17.704 19.012 17.648 19.076 17.6C19.204 17.52 19.372 17.48 19.58 17.48C19.804 17.48 19.972 17.52 20.084 17.6C20.148 17.648 20.196 17.704 20.228 17.768C20.276 17.832 20.3 17.896 20.3 17.96C20.3 18.104 20.228 18.224 20.084 18.32C20.02 18.352 19.94 18.384 19.844 18.416C19.764 18.432 19.676 18.44 19.58 18.44C19.404 18.44 19.236 18.4 19.076 18.32ZM16.196 16.4C16.132 16.352 16.076 16.296 16.028 16.232C15.996 16.168 15.98 16.104 15.98 16.04C15.98 15.976 15.996 15.912 16.028 15.848C16.076 15.784 16.132 15.728 16.196 15.68C16.324 15.6 16.492 15.56 16.7 15.56C16.924 15.56 17.092 15.6 17.204 15.68C17.268 15.728 17.316 15.784 17.348 15.848C17.396 15.912 17.42 15.976 17.42 16.04C17.42 16.184 17.348 16.304 17.204 16.4C17.14 16.432 17.06 16.464 16.964 16.496C16.884 16.512 16.796 16.52 16.7 16.52C16.524 16.52 16.356 16.48 16.196 16.4ZM16.196 18.32C16.132 18.272 16.076 18.216 16.028 18.152C15.996 18.088 15.98 18.024 15.98 17.96C15.98 17.896 15.996 17.832 16.028 17.768C16.076 17.704 16.132 17.648 16.196 17.6C16.324 17.52 16.492 17.48 16.7 17.48C16.924 17.48 17.092 17.52 17.204 17.6C17.268 17.648 17.316 17.704 17.348 17.768C17.396 17.832 17.42 17.896 17.42 17.96C17.42 18.104 17.348 18.224 17.204 18.32C17.14 18.352 17.06 18.384 16.964 18.416C16.884 18.432 16.796 18.44 16.7 18.44C16.524 18.44 16.356 18.4 16.196 18.32ZM16.196 19.28C16.132 19.232 16.076 19.176 16.028 19.112C15.996 19.048 15.98 18.984 15.98 18.92C15.98 18.856 15.996 18.792 16.028 18.728C16.076 18.664 16.132 18.608 16.196 18.56C16.324 18.48 16.492 18.44 16.7 18.44C16.924 18.44 17.092 18.48 17.204 18.56C17.268 18.608 17.316 18.664 17.348 18.728C17.396 18.792 17.42 18.856 17.42 18.92C17.42 19.064 17.348 19.184 17.204 19.28C17.14 19.312 17.06 19.344 16.964 19.376C16.884 19.392 16.796 19.4 16.7 19.4C16.524 19.4 16.356 19.36 16.196 19.28ZM16.196 14.48C16.132 14.432 16.076 14.376 16.028 14.312C15.996 14.248 15.98 14.184 15.98 14.12C15.98 14.056 15.996 13.992 16.028 13.928C16.076 13.864 16.132 13.808 16.196 13.76C16.324 13.68 16.492 13.64 16.7 13.64C16.924 13.64 17.092 13.68 17.204 13.76C17.268 13.808 17.316 13.864 17.348 13.928C17.396 13.992 17.42 14.056 17.42 14.12C17.42 14.264 17.348 14.384 17.204 14.48C17.14 14.512 17.06 14.544 16.964 14.576C16.884 14.592 16.796 14.6 16.7 14.6C16.524 14.6 16.356 14.56 16.196 14.48ZM16.196 13.52C16.132 13.472 16.076 13.416 16.028 13.352C15.996 13.288 15.98 13.224 15.98 13.16C15.98 13.096 15.996 13.032 16.028 12.968C16.076 12.904 16.132 12.848 16.196 12.8C16.324 12.72 16.492 12.68 16.7 12.68C16.924 12.68 17.092 12.72 17.204 12.8C17.268 12.848 17.316 12.904 17.348 12.968C17.396 13.032 17.42 13.096 17.42 13.16C17.42 13.304 17.348 13.424 17.204 13.52C17.14 13.552 17.06 13.584 16.964 13.616C16.884 13.632 16.796 13.64 16.7 13.64C16.524 13.64 16.356 13.6 16.196 13.52ZM14.276 17.36C14.212 17.312 14.156 17.256 14.108 17.192C14.076 17.128 14.06 17.064 14.06 17C14.06 16.936 14.076 16.872 14.108 16.808C14.156 16.744 14.212 16.688 14.276 16.64C14.404 16.56 14.572 16.52 14.78 16.52C15.004 16.52 15.172 16.56 15.284 16.64C15.348 16.688 15.396 16.744 15.428 16.808C15.476 16.872 15.5 16.936 15.5 17C15.5 17.144 15.428 17.264 15.284 17.36C15.22 17.392 15.14 17.424 15.044 17.456C14.964 17.472 14.876 17.48 14.78 17.48C14.604 17.48 14.436 17.44 14.276 17.36ZM18.116 17.36C18.052 17.312 17.996 17.256 17.948 17.192C17.916 17.128 17.9 17.064 17.9 17C17.9 16.936 17.916 16.872 17.948 16.808C17.996 16.744 18.052 16.688 18.116 16.64C18.244 16.56 18.412 16.52 18.62 16.52C18.844 16.52 19.012 16.56 19.124 16.64C19.188 16.688 19.236 16.744 19.268 16.808C19.316 16.872 19.34 16.936 19.34 17C19.34 17.144 19.268 17.264 19.124 17.36C19.06 17.392 18.98 17.424 18.884 17.456C18.804 17.472 18.716 17.48 18.62 17.48C18.444 17.48 18.276 17.44 18.116 17.36ZM18.116 15.44C18.052 15.392 17.996 15.336 17.948 15.272C17.916 15.208 17.9 15.144 17.9 15.08C17.9 15.016 17.916 14.952 17.948 14.888C17.996 14.824 18.052 14.768 18.116 14.72C18.244 14.64 18.412 14.6 18.62 14.6C18.844 14.6 19.012 14.64 19.124 14.72C19.188 14.768 19.236 14.824 19.268 14.888C19.316 14.952 19.34 15.016 19.34 15.08C19.34 15.224 19.268 15.344 19.124 15.44C19.06 15.472 18.98 15.504 18.884 15.536C18.804 15.552 18.716 15.56 18.62 15.56C18.444 15.56 18.276 15.52 18.116 15.44ZM14.276 15.44C14.212 15.392 14.156 15.336 14.108 15.272C14.076 15.208 14.06 15.144 14.06 15.08C14.06 15.016 14.076 14.952 14.108 14.888C14.156 14.824 14.212 14.768 14.276 14.72C14.404 14.64 14.572 14.6 14.78 14.6C15.004 14.6 15.172 14.64 15.284 14.72C15.348 14.768 15.396 14.824 15.428 14.888C15.476 14.952 15.5 15.016 15.5 15.08C15.5 15.224 15.428 15.344 15.284 15.44C15.22 15.472 15.14 15.504 15.044 15.536C14.964 15.552 14.876 15.56 14.78 15.56C14.604 15.56 14.436 15.52 14.276 15.44ZM15.236 16.4C15.172 16.352 15.116 16.296 15.068 16.232C15.036 16.168 15.02 16.104 15.02 16.04C15.02 15.976 15.036 15.912 15.068 15.848C15.116 15.784 15.172 15.728 15.236 15.68C15.364 15.6 15.532 15.56 15.74 15.56C15.964 15.56 16.132 15.6 16.244 15.68C16.308 15.728 16.356 15.784 16.388 15.848C16.436 15.912 16.46 15.976 16.46 16.04C16.46 16.184 16.388 16.304 16.244 16.4C16.18 16.432 16.1 16.464 16.004 16.496C15.924 16.512 15.836 16.52 15.74 16.52C15.564 16.52 15.396 16.48 15.236 16.4ZM17.156 16.4C17.092 16.352 17.036 16.296 16.988 16.232C16.956 16.168 16.94 16.104 16.94 16.04C16.94 15.976 16.956 15.912 16.988 15.848C17.036 15.784 17.092 15.728 17.156 15.68C17.284 15.6 17.452 15.56 17.66 15.56C17.884 15.56 18.052 15.6 18.164 15.68C18.228 15.728 18.276 15.784 18.308 15.848C18.356 15.912 18.38 15.976 18.38 16.04C18.38 16.184 18.308 16.304 18.164 16.4C18.1 16.432 18.02 16.464 17.924 16.496C17.844 16.512 17.756 16.52 17.66 16.52C17.484 16.52 17.316 16.48 17.156 16.4Z" fill="#09090B"/>
</svg>
