<svg width="24" height="24" viewBox="0 0 24 24" fill="none" xmlns="http://www.w3.org/2000/svg">
<path d="M7.056 4.34C6.992 4.292 6.936 4.236 6.888 4.172C6.856 4.108 6.84 4.044 6.84 3.98C6.84 3.916 6.856 3.852 6.888 3.788C6.936 3.724 6.992 3.668 7.056 3.62C7.184 3.54 7.352 3.5 7.56 3.5C7.784 3.5 7.952 3.54 8.064 3.62C8.128 3.668 8.176 3.724 8.208 3.788C8.256 3.852 8.28 3.916 8.28 3.98C8.28 4.124 8.208 4.244 8.064 4.34C8 4.372 7.92 4.404 7.824 4.436C7.744 4.452 7.656 4.46 7.56 4.46C7.384 4.46 7.216 4.42 7.056 4.34ZM6.096 4.34C6.032 4.292 5.976 4.236 5.928 4.172C5.896 4.108 5.88 4.044 5.88 3.98C5.88 3.916 5.896 3.852 5.928 3.788C5.976 3.724 6.032 3.668 6.096 3.62C6.224 3.54 6.392 3.5 6.6 3.5C6.824 3.5 6.992 3.54 7.104 3.62C7.168 3.668 7.216 3.724 7.248 3.788C7.296 3.852 7.32 3.916 7.32 3.98C7.32 4.124 7.248 4.244 7.104 4.34C7.04 4.372 6.96 4.404 6.864 4.436C6.784 4.452 6.696 4.46 6.6 4.46C6.424 4.46 6.256 4.42 6.096 4.34ZM3.216 5.3C3.152 5.252 3.096 5.196 3.048 5.132C3.016 5.068 3 5.004 3 4.94C3 4.876 3.016 4.812 3.048 4.748C3.096 4.684 3.152 4.628 3.216 4.58C3.344 4.5 3.512 4.46 3.72 4.46C3.944 4.46 4.112 4.5 4.224 4.58C4.288 4.628 4.336 4.684 4.368 4.748C4.416 4.812 4.44 4.876 4.44 4.94C4.44 5.084 4.368 5.204 4.224 5.3C4.16 5.332 4.08 5.364 3.984 5.396C3.904 5.412 3.816 5.42 3.72 5.42C3.544 5.42 3.376 5.38 3.216 5.3ZM3.216 6.26C3.152 6.212 3.096 6.156 3.048 6.092C3.016 6.028 3 5.964 3 5.9C3 5.836 3.016 5.772 3.048 5.708C3.096 5.644 3.152 5.588 3.216 5.54C3.344 5.46 3.512 5.42 3.72 5.42C3.944 5.42 4.112 5.46 4.224 5.54C4.288 5.588 4.336 5.644 4.368 5.708C4.416 5.772 4.44 5.836 4.44 5.9C4.44 6.044 4.368 6.164 4.224 6.26C4.16 6.292 4.08 6.324 3.984 6.356C3.904 6.372 3.816 6.38 3.72 6.38C3.544 6.38 3.376 6.34 3.216 6.26ZM3.216 7.22C3.152 7.172 3.096 7.116 3.048 7.052C3.016 6.988 3 6.924 3 6.86C3 6.796 3.016 6.732 3.048 6.668C3.096 6.604 3.152 6.548 3.216 6.5C3.344 6.42 3.512 6.38 3.72 6.38C3.944 6.38 4.112 6.42 4.224 6.5C4.288 6.548 4.336 6.604 4.368 6.668C4.416 6.732 4.44 6.796 4.44 6.86C4.44 7.004 4.368 7.124 4.224 7.22C4.16 7.252 4.08 7.284 3.984 7.316C3.904 7.332 3.816 7.34 3.72 7.34C3.544 7.34 3.376 7.3 3.216 7.22ZM3.216 8.18C3.152 8.132 3.096 8.076 3.048 8.012C3.016 7.948 3 7.884 3 7.82C3 7.756 3.016 7.692 3.048 7.628C3.096 7.564 3.152 7.508 3.216 7.46C3.344 7.38 3.512 7.34 3.72 7.34C3.944 7.34 4.112 7.38 4.224 7.46C4.288 7.508 4.336 7.564 4.368 7.628C4.416 7.692 4.44 7.756 4.44 7.82C4.44 7.964 4.368 8.084 4.224 8.18C4.16 8.212 4.08 8.244 3.984 8.276C3.904 8.292 3.816 8.3 3.72 8.3C3.544 8.3 3.376 8.26 3.216 8.18ZM4.176 4.34C4.112 4.292 4.056 4.236 4.008 4.172C3.976 4.108 3.96 4.044 3.96 3.98C3.96 3.916 3.976 3.852 4.008 3.788C4.056 3.724 4.112 3.668 4.176 3.62C4.304 3.54 4.472 3.5 4.68 3.5C4.904 3.5 5.072 3.54 5.184 3.62C5.248 3.668 5.296 3.724 5.328 3.788C5.376 3.852 5.4 3.916 5.4 3.98C5.4 4.124 5.328 4.244 5.184 4.34C5.12 4.372 5.04 4.404 4.944 4.436C4.864 4.452 4.776 4.46 4.68 4.46C4.504 4.46 4.336 4.42 4.176 4.34ZM5.136 4.34C5.072 4.292 5.016 4.236 4.968 4.172C4.936 4.108 4.92 4.044 4.92 3.98C4.92 3.916 4.936 3.852 4.968 3.788C5.016 3.724 5.072 3.668 5.136 3.62C5.264 3.54 5.432 3.5 5.64 3.5C5.864 3.5 6.032 3.54 6.144 3.62C6.208 3.668 6.256 3.724 6.288 3.788C6.336 3.852 6.36 3.916 6.36 3.98C6.36 4.124 6.288 4.244 6.144 4.34C6.08 4.372 6 4.404 5.904 4.436C5.824 4.452 5.736 4.46 5.64 4.46C5.464 4.46 5.296 4.42 5.136 4.34ZM15.696 4.34C15.632 4.292 15.576 4.236 15.528 4.172C15.496 4.108 15.48 4.044 15.48 3.98C15.48 3.916 15.496 3.852 15.528 3.788C15.576 3.724 15.632 3.668 15.696 3.62C15.824 3.54 15.992 3.5 16.2 3.5C16.424 3.5 16.592 3.54 16.704 3.62C16.768 3.668 16.816 3.724 16.848 3.788C16.896 3.852 16.92 3.916 16.92 3.98C16.92 4.124 16.848 4.244 16.704 4.34C16.64 4.372 16.56 4.404 16.464 4.436C16.384 4.452 16.296 4.46 16.2 4.46C16.024 4.46 15.856 4.42 15.696 4.34ZM16.656 4.34C16.592 4.292 16.536 4.236 16.488 4.172C16.456 4.108 16.44 4.044 16.44 3.98C16.44 3.916 16.456 3.852 16.488 3.788C16.536 3.724 16.592 3.668 16.656 3.62C16.784 3.54 16.952 3.5 17.16 3.5C17.384 3.5 17.552 3.54 17.664 3.62C17.728 3.668 17.776 3.724 17.808 3.788C17.856 3.852 17.88 3.916 17.88 3.98C17.88 4.124 17.808 4.244 17.664 4.34C17.6 4.372 17.52 4.404 17.424 4.436C17.344 4.452 17.256 4.46 17.16 4.46C16.984 4.46 16.816 4.42 16.656 4.34ZM17.616 4.34C17.552 4.292 17.496 4.236 17.448 4.172C17.416 4.108 17.4 4.044 17.4 3.98C17.4 3.916 17.416 3.852 17.448 3.788C17.496 3.724 17.552 3.668 17.616 3.62C17.744 3.54 17.912 3.5 18.12 3.5C18.344 3.5 18.512 3.54 18.624 3.62C18.688 3.668 18.736 3.724 18.768 3.788C18.816 3.852 18.84 3.916 18.84 3.98C18.84 4.124 18.768 4.244 18.624 4.34C18.56 4.372 18.48 4.404 18.384 4.436C18.304 4.452 18.216 4.46 18.12 4.46C17.944 4.46 17.776 4.42 17.616 4.34ZM15.696 20.66C15.632 20.612 15.576 20.556 15.528 20.492C15.496 20.428 15.48 20.364 15.48 20.3C15.48 20.236 15.496 20.172 15.528 20.108C15.576 20.044 15.632 19.988 15.696 19.94C15.824 19.86 15.992 19.82 16.2 19.82C16.424 19.82 16.592 19.86 16.704 19.94C16.768 19.988 16.816 20.044 16.848 20.108C16.896 20.172 16.92 20.236 16.92 20.3C16.92 20.444 16.848 20.564 16.704 20.66C16.64 20.692 16.56 20.724 16.464 20.756C16.384 20.772 16.296 20.78 16.2 20.78C16.024 20.78 15.856 20.74 15.696 20.66ZM16.656 20.66C16.592 20.612 16.536 20.556 16.488 20.492C16.456 20.428 16.44 20.364 16.44 20.3C16.44 20.236 16.456 20.172 16.488 20.108C16.536 20.044 16.592 19.988 16.656 19.94C16.784 19.86 16.952 19.82 17.16 19.82C17.384 19.82 17.552 19.86 17.664 19.94C17.728 19.988 17.776 20.044 17.808 20.108C17.856 20.172 17.88 20.236 17.88 20.3C17.88 20.444 17.808 20.564 17.664 20.66C17.6 20.692 17.52 20.724 17.424 20.756C17.344 20.772 17.256 20.78 17.16 20.78C16.984 20.78 16.816 20.74 16.656 20.66ZM17.616 20.66C17.552 20.612 17.496 20.556 17.448 20.492C17.416 20.428 17.4 20.364 17.4 20.3C17.4 20.236 17.416 20.172 17.448 20.108C17.496 20.044 17.552 19.988 17.616 19.94C17.744 19.86 17.912 19.82 18.12 19.82C18.344 19.82 18.512 19.86 18.624 19.94C18.688 19.988 18.736 20.044 18.768 20.108C18.816 20.172 18.84 20.236 18.84 20.3C18.84 20.444 18.768 20.564 18.624 20.66C18.56 20.692 18.48 20.724 18.384 20.756C18.304 20.772 18.216 20.78 18.12 20.78C17.944 20.78 17.776 20.74 17.616 20.66ZM3.216 16.82C3.152 16.772 3.096 16.716 3.048 16.652C3.016 16.588 3 16.524 3 16.46C3 16.396 3.016 16.332 3.048 16.268C3.096 16.204 3.152 16.148 3.216 16.1C3.344 16.02 3.512 15.98 3.72 15.98C3.944 15.98 4.112 16.02 4.224 16.1C4.288 16.148 4.336 16.204 4.368 16.268C4.416 16.332 4.44 16.396 4.44 16.46C4.44 16.604 4.368 16.724 4.224 16.82C4.16 16.852 4.08 16.884 3.984 16.916C3.904 16.932 3.816 16.94 3.72 16.94C3.544 16.94 3.376 16.9 3.216 16.82ZM3.216 18.74C3.152 18.692 3.096 18.636 3.048 18.572C3.016 18.508 3 18.444 3 18.38C3 18.316 3.016 18.252 3.048 18.188C3.096 18.124 3.152 18.068 3.216 18.02C3.344 17.94 3.512 17.9 3.72 17.9C3.944 17.9 4.112 17.94 4.224 18.02C4.288 18.068 4.336 18.124 4.368 18.188C4.416 18.252 4.44 18.316 4.44 18.38C4.44 18.524 4.368 18.644 4.224 18.74C4.16 18.772 4.08 18.804 3.984 18.836C3.904 18.852 3.816 18.86 3.72 18.86C3.544 18.86 3.376 18.82 3.216 18.74ZM3.216 19.7C3.152 19.652 3.096 19.596 3.048 19.532C3.016 19.468 3 19.404 3 19.34C3 19.276 3.016 19.212 3.048 19.148C3.096 19.084 3.152 19.028 3.216 18.98C3.344 18.9 3.512 18.86 3.72 18.86C3.944 18.86 4.112 18.9 4.224 18.98C4.288 19.028 4.336 19.084 4.368 19.148C4.416 19.212 4.44 19.276 4.44 19.34C4.44 19.484 4.368 19.604 4.224 19.7C4.16 19.732 4.08 19.764 3.984 19.796C3.904 19.812 3.816 19.82 3.72 19.82C3.544 19.82 3.376 19.78 3.216 19.7ZM3.216 17.78C3.152 17.732 3.096 17.676 3.048 17.612C3.016 17.548 3 17.484 3 17.42C3 17.356 3.016 17.292 3.048 17.228C3.096 17.164 3.152 17.108 3.216 17.06C3.344 16.98 3.512 16.94 3.72 16.94C3.944 16.94 4.112 16.98 4.224 17.06C4.288 17.108 4.336 17.164 4.368 17.228C4.416 17.292 4.44 17.356 4.44 17.42C4.44 17.564 4.368 17.684 4.224 17.78C4.16 17.812 4.08 17.844 3.984 17.876C3.904 17.892 3.816 17.9 3.72 17.9C3.544 17.9 3.376 17.86 3.216 17.78ZM4.176 20.66C4.112 20.612 4.056 20.556 4.008 20.492C3.976 20.428 3.96 20.364 3.96 20.3C3.96 20.236 3.976 20.172 4.008 20.108C4.056 20.044 4.112 19.988 4.176 19.94C4.304 19.86 4.472 19.82 4.68 19.82C4.904 19.82 5.072 19.86 5.184 19.94C5.248 19.988 5.296 20.044 5.328 20.108C5.376 20.172 5.4 20.236 5.4 20.3C5.4 20.444 5.328 20.564 5.184 20.66C5.12 20.692 5.04 20.724 4.944 20.756C4.864 20.772 4.776 20.78 4.68 20.78C4.504 20.78 4.336 20.74 4.176 20.66ZM5.136 20.66C5.072 20.612 5.016 20.556 4.968 20.492C4.936 20.428 4.92 20.364 4.92 20.3C4.92 20.236 4.936 20.172 4.968 20.108C5.016 20.044 5.072 19.988 5.136 19.94C5.264 19.86 5.432 19.82 5.64 19.82C5.864 19.82 6.032 19.86 6.144 19.94C6.208 19.988 6.256 20.044 6.288 20.108C6.336 20.172 6.36 20.236 6.36 20.3C6.36 20.444 6.288 20.564 6.144 20.66C6.08 20.692 6 20.724 5.904 20.756C5.824 20.772 5.736 20.78 5.64 20.78C5.464 20.78 5.296 20.74 5.136 20.66ZM6.096 20.66C6.032 20.612 5.976 20.556 5.928 20.492C5.896 20.428 5.88 20.364 5.88 20.3C5.88 20.236 5.896 20.172 5.928 20.108C5.976 20.044 6.032 19.988 6.096 19.94C6.224 19.86 6.392 19.82 6.6 19.82C6.824 19.82 6.992 19.86 7.104 19.94C7.168 19.988 7.216 20.044 7.248 20.108C7.296 20.172 7.32 20.236 7.32 20.3C7.32 20.444 7.248 20.564 7.104 20.66C7.04 20.692 6.96 20.724 6.864 20.756C6.784 20.772 6.696 20.78 6.6 20.78C6.424 20.78 6.256 20.74 6.096 20.66ZM7.056 20.66C6.992 20.612 6.936 20.556 6.888 20.492C6.856 20.428 6.84 20.364 6.84 20.3C6.84 20.236 6.856 20.172 6.888 20.108C6.936 20.044 6.992 19.988 7.056 19.94C7.184 19.86 7.352 19.82 7.56 19.82C7.784 19.82 7.952 19.86 8.064 19.94C8.128 19.988 8.176 20.044 8.208 20.108C8.256 20.172 8.28 20.236 8.28 20.3C8.28 20.444 8.208 20.564 8.064 20.66C8 20.692 7.92 20.724 7.824 20.756C7.744 20.772 7.656 20.78 7.56 20.78C7.384 20.78 7.216 20.74 7.056 20.66ZM18.576 20.66C18.512 20.612 18.456 20.556 18.408 20.492C18.376 20.428 18.36 20.364 18.36 20.3C18.36 20.236 18.376 20.172 18.408 20.108C18.456 20.044 18.512 19.988 18.576 19.94C18.704 19.86 18.872 19.82 19.08 19.82C19.304 19.82 19.472 19.86 19.584 19.94C19.648 19.988 19.696 20.044 19.728 20.108C19.776 20.172 19.8 20.236 19.8 20.3C19.8 20.444 19.728 20.564 19.584 20.66C19.52 20.692 19.44 20.724 19.344 20.756C19.264 20.772 19.176 20.78 19.08 20.78C18.904 20.78 18.736 20.74 18.576 20.66ZM19.536 19.7C19.472 19.652 19.416 19.596 19.368 19.532C19.336 19.468 19.32 19.404 19.32 19.34C19.32 19.276 19.336 19.212 19.368 19.148C19.416 19.084 19.472 19.028 19.536 18.98C19.664 18.9 19.832 18.86 20.04 18.86C20.264 18.86 20.432 18.9 20.544 18.98C20.608 19.028 20.656 19.084 20.688 19.148C20.736 19.212 20.76 19.276 20.76 19.34C20.76 19.484 20.688 19.604 20.544 19.7C20.48 19.732 20.4 19.764 20.304 19.796C20.224 19.812 20.136 19.82 20.04 19.82C19.864 19.82 19.696 19.78 19.536 19.7ZM19.536 18.74C19.472 18.692 19.416 18.636 19.368 18.572C19.336 18.508 19.32 18.444 19.32 18.38C19.32 18.316 19.336 18.252 19.368 18.188C19.416 18.124 19.472 18.068 19.536 18.02C19.664 17.94 19.832 17.9 20.04 17.9C20.264 17.9 20.432 17.94 20.544 18.02C20.608 18.068 20.656 18.124 20.688 18.188C20.736 18.252 20.76 18.316 20.76 18.38C20.76 18.524 20.688 18.644 20.544 18.74C20.48 18.772 20.4 18.804 20.304 18.836C20.224 18.852 20.136 18.86 20.04 18.86C19.864 18.86 19.696 18.82 19.536 18.74ZM19.536 17.78C19.472 17.732 19.416 17.676 19.368 17.612C19.336 17.548 19.32 17.484 19.32 17.42C19.32 17.356 19.336 17.292 19.368 17.228C19.416 17.164 19.472 17.108 19.536 17.06C19.664 16.98 19.832 16.94 20.04 16.94C20.264 16.94 20.432 16.98 20.544 17.06C20.608 17.108 20.656 17.164 20.688 17.228C20.736 17.292 20.76 17.356 20.76 17.42C20.76 17.564 20.688 17.684 20.544 17.78C20.48 17.812 20.4 17.844 20.304 17.876C20.224 17.892 20.136 17.9 20.04 17.9C19.864 17.9 19.696 17.86 19.536 17.78ZM19.536 16.82C19.472 16.772 19.416 16.716 19.368 16.652C19.336 16.588 19.32 16.524 19.32 16.46C19.32 16.396 19.336 16.332 19.368 16.268C19.416 16.204 19.472 16.148 19.536 16.1C19.664 16.02 19.832 15.98 20.04 15.98C20.264 15.98 20.432 16.02 20.544 16.1C20.608 16.148 20.656 16.204 20.688 16.268C20.736 16.332 20.76 16.396 20.76 16.46C20.76 16.604 20.688 16.724 20.544 16.82C20.48 16.852 20.4 16.884 20.304 16.916C20.224 16.932 20.136 16.94 20.04 16.94C19.864 16.94 19.696 16.9 19.536 16.82ZM19.536 8.18C19.472 8.132 19.416 8.076 19.368 8.012C19.336 7.948 19.32 7.884 19.32 7.82C19.32 7.756 19.336 7.692 19.368 7.628C19.416 7.564 19.472 7.508 19.536 7.46C19.664 7.38 19.832 7.34 20.04 7.34C20.264 7.34 20.432 7.38 20.544 7.46C20.608 7.508 20.656 7.564 20.688 7.628C20.736 7.692 20.76 7.756 20.76 7.82C20.76 7.964 20.688 8.084 20.544 8.18C20.48 8.212 20.4 8.244 20.304 8.276C20.224 8.292 20.136 8.3 20.04 8.3C19.864 8.3 19.696 8.26 19.536 8.18ZM19.536 5.3C19.472 5.252 19.416 5.196 19.368 5.132C19.336 5.068 19.32 5.004 19.32 4.94C19.32 4.876 19.336 4.812 19.368 4.748C19.416 4.684 19.472 4.628 19.536 4.58C19.664 4.5 19.832 4.46 20.04 4.46C20.264 4.46 20.432 4.5 20.544 4.58C20.608 4.628 20.656 4.684 20.688 4.748C20.736 4.812 20.76 4.876 20.76 4.94C20.76 5.084 20.688 5.204 20.544 5.3C20.48 5.332 20.4 5.364 20.304 5.396C20.224 5.412 20.136 5.42 20.04 5.42C19.864 5.42 19.696 5.38 19.536 5.3ZM19.536 6.26C19.472 6.212 19.416 6.156 19.368 6.092C19.336 6.028 19.32 5.964 19.32 5.9C19.32 5.836 19.336 5.772 19.368 5.708C19.416 5.644 19.472 5.588 19.536 5.54C19.664 5.46 19.832 5.42 20.04 5.42C20.264 5.42 20.432 5.46 20.544 5.54C20.608 5.588 20.656 5.644 20.688 5.708C20.736 5.772 20.76 5.836 20.76 5.9C20.76 6.044 20.688 6.164 20.544 6.26C20.48 6.292 20.4 6.324 20.304 6.356C20.224 6.372 20.136 6.38 20.04 6.38C19.864 6.38 19.696 6.34 19.536 6.26ZM19.536 7.22C19.472 7.172 19.416 7.116 19.368 7.052C19.336 6.988 19.32 6.924 19.32 6.86C19.32 6.796 19.336 6.732 19.368 6.668C19.416 6.604 19.472 6.548 19.536 6.5C19.664 6.42 19.832 6.38 20.04 6.38C20.264 6.38 20.432 6.42 20.544 6.5C20.608 6.548 20.656 6.604 20.688 6.668C20.736 6.732 20.76 6.796 20.76 6.86C20.76 7.004 20.688 7.124 20.544 7.22C20.48 7.252 20.4 7.284 20.304 7.316C20.224 7.332 20.136 7.34 20.04 7.34C19.864 7.34 19.696 7.3 19.536 7.22ZM18.576 4.34C18.512 4.292 18.456 4.236 18.408 4.172C18.376 4.108 18.36 4.044 18.36 3.98C18.36 3.916 18.376 3.852 18.408 3.788C18.456 3.724 18.512 3.668 18.576 3.62C18.704 3.54 18.872 3.5 19.08 3.5C19.304 3.5 19.472 3.54 19.584 3.62C19.648 3.668 19.696 3.724 19.728 3.788C19.776 3.852 19.8 3.916 19.8 3.98C19.8 4.124 19.728 4.244 19.584 4.34C19.52 4.372 19.44 4.404 19.344 4.436C19.264 4.452 19.176 4.46 19.08 4.46C18.904 4.46 18.736 4.42 18.576 4.34Z" fill="currentColor"/>
<path d="M7.216 9.84C7.152 9.792 7.096 9.736 7.048 9.672C7.016 9.608 7 9.544 7 9.48C7 9.416 7.016 9.352 7.048 9.288C7.096 9.224 7.152 9.168 7.216 9.12C7.344 9.04 7.512 9 7.72 9C7.944 9 8.112 9.04 8.224 9.12C8.288 9.168 8.336 9.224 8.368 9.288C8.416 9.352 8.44 9.416 8.44 9.48C8.44 9.624 8.368 9.744 8.224 9.84C8.16 9.872 8.08 9.904 7.984 9.936C7.904 9.952 7.816 9.96 7.72 9.96C7.544 9.96 7.376 9.92 7.216 9.84ZM8.176 9.84C8.112 9.792 8.056 9.736 8.008 9.672C7.976 9.608 7.96 9.544 7.96 9.48C7.96 9.416 7.976 9.352 8.008 9.288C8.056 9.224 8.112 9.168 8.176 9.12C8.304 9.04 8.472 9 8.68 9C8.904 9 9.072 9.04 9.184 9.12C9.248 9.168 9.296 9.224 9.328 9.288C9.376 9.352 9.4 9.416 9.4 9.48C9.4 9.624 9.328 9.744 9.184 9.84C9.12 9.872 9.04 9.904 8.944 9.936C8.864 9.952 8.776 9.96 8.68 9.96C8.504 9.96 8.336 9.92 8.176 9.84ZM9.136 9.84C9.072 9.792 9.016 9.736 8.968 9.672C8.936 9.608 8.92 9.544 8.92 9.48C8.92 9.416 8.936 9.352 8.968 9.288C9.016 9.224 9.072 9.168 9.136 9.12C9.264 9.04 9.432 9 9.64 9C9.864 9 10.032 9.04 10.144 9.12C10.208 9.168 10.256 9.224 10.288 9.288C10.336 9.352 10.36 9.416 10.36 9.48C10.36 9.624 10.288 9.744 10.144 9.84C10.08 9.872 10 9.904 9.904 9.936C9.824 9.952 9.736 9.96 9.64 9.96C9.464 9.96 9.296 9.92 9.136 9.84ZM10.096 9.84C10.032 9.792 9.976 9.736 9.928 9.672C9.896 9.608 9.88 9.544 9.88 9.48C9.88 9.416 9.896 9.352 9.928 9.288C9.976 9.224 10.032 9.168 10.096 9.12C10.224 9.04 10.392 9 10.6 9C10.824 9 10.992 9.04 11.104 9.12C11.168 9.168 11.216 9.224 11.248 9.288C11.296 9.352 11.32 9.416 11.32 9.48C11.32 9.624 11.248 9.744 11.104 9.84C11.04 9.872 10.96 9.904 10.864 9.936C10.784 9.952 10.696 9.96 10.6 9.96C10.424 9.96 10.256 9.92 10.096 9.84ZM11.056 9.84C10.992 9.792 10.936 9.736 10.888 9.672C10.856 9.608 10.84 9.544 10.84 9.48C10.84 9.416 10.856 9.352 10.888 9.288C10.936 9.224 10.992 9.168 11.056 9.12C11.184 9.04 11.352 9 11.56 9C11.784 9 11.952 9.04 12.064 9.12C12.128 9.168 12.176 9.224 12.208 9.288C12.256 9.352 12.28 9.416 12.28 9.48C12.28 9.624 12.208 9.744 12.064 9.84C12 9.872 11.92 9.904 11.824 9.936C11.744 9.952 11.656 9.96 11.56 9.96C11.384 9.96 11.216 9.92 11.056 9.84ZM12.016 9.84C11.952 9.792 11.896 9.736 11.848 9.672C11.816 9.608 11.8 9.544 11.8 9.48C11.8 9.416 11.816 9.352 11.848 9.288C11.896 9.224 11.952 9.168 12.016 9.12C12.144 9.04 12.312 9 12.52 9C12.744 9 12.912 9.04 13.024 9.12C13.088 9.168 13.136 9.224 13.168 9.288C13.216 9.352 13.24 9.416 13.24 9.48C13.24 9.624 13.168 9.744 13.024 9.84C12.96 9.872 12.88 9.904 12.784 9.936C12.704 9.952 12.616 9.96 12.52 9.96C12.344 9.96 12.176 9.92 12.016 9.84ZM12.976 9.84C12.912 9.792 12.856 9.736 12.808 9.672C12.776 9.608 12.76 9.544 12.76 9.48C12.76 9.416 12.776 9.352 12.808 9.288C12.856 9.224 12.912 9.168 12.976 9.12C13.104 9.04 13.272 9 13.48 9C13.704 9 13.872 9.04 13.984 9.12C14.048 9.168 14.096 9.224 14.128 9.288C14.176 9.352 14.2 9.416 14.2 9.48C14.2 9.624 14.128 9.744 13.984 9.84C13.92 9.872 13.84 9.904 13.744 9.936C13.664 9.952 13.576 9.96 13.48 9.96C13.304 9.96 13.136 9.92 12.976 9.84ZM13.936 9.84C13.872 9.792 13.816 9.736 13.768 9.672C13.736 9.608 13.72 9.544 13.72 9.48C13.72 9.416 13.736 9.352 13.768 9.288C13.816 9.224 13.872 9.168 13.936 9.12C14.064 9.04 14.232 9 14.44 9C14.664 9 14.832 9.04 14.944 9.12C15.008 9.168 15.056 9.224 15.088 9.288C15.136 9.352 15.16 9.416 15.16 9.48C15.16 9.624 15.088 9.744 14.944 9.84C14.88 9.872 14.8 9.904 14.704 9.936C14.624 9.952 14.536 9.96 14.44 9.96C14.264 9.96 14.096 9.92 13.936 9.84ZM14.896 9.84C14.832 9.792 14.776 9.736 14.728 9.672C14.696 9.608 14.68 9.544 14.68 9.48C14.68 9.416 14.696 9.352 14.728 9.288C14.776 9.224 14.832 9.168 14.896 9.12C15.024 9.04 15.192 9 15.4 9C15.624 9 15.792 9.04 15.904 9.12C15.968 9.168 16.016 9.224 16.048 9.288C16.096 9.352 16.12 9.416 16.12 9.48C16.12 9.624 16.048 9.744 15.904 9.84C15.84 9.872 15.76 9.904 15.664 9.936C15.584 9.952 15.496 9.96 15.4 9.96C15.224 9.96 15.056 9.92 14.896 9.84Z" fill="currentColor"/>
<path d="M7.216 12.84C7.152 12.792 7.096 12.736 7.048 12.672C7.016 12.608 7 12.544 7 12.48C7 12.416 7.016 12.352 7.048 12.288C7.096 12.224 7.152 12.168 7.216 12.12C7.344 12.04 7.512 12 7.72 12C7.944 12 8.112 12.04 8.224 12.12C8.288 12.168 8.336 12.224 8.368 12.288C8.416 12.352 8.44 12.416 8.44 12.48C8.44 12.624 8.368 12.744 8.224 12.84C8.16 12.872 8.08 12.904 7.984 12.936C7.904 12.952 7.816 12.96 7.72 12.96C7.544 12.96 7.376 12.92 7.216 12.84ZM8.176 12.84C8.112 12.792 8.056 12.736 8.008 12.672C7.976 12.608 7.96 12.544 7.96 12.48C7.96 12.416 7.976 12.352 8.008 12.288C8.056 12.224 8.112 12.168 8.176 12.12C8.304 12.04 8.472 12 8.68 12C8.904 12 9.072 12.04 9.184 12.12C9.248 12.168 9.296 12.224 9.328 12.288C9.376 12.352 9.4 12.416 9.4 12.48C9.4 12.624 9.328 12.744 9.184 12.84C9.12 12.872 9.04 12.904 8.944 12.936C8.864 12.952 8.776 12.96 8.68 12.96C8.504 12.96 8.336 12.92 8.176 12.84ZM9.136 12.84C9.072 12.792 9.016 12.736 8.968 12.672C8.936 12.608 8.92 12.544 8.92 12.48C8.92 12.416 8.936 12.352 8.968 12.288C9.016 12.224 9.072 12.168 9.136 12.12C9.264 12.04 9.432 12 9.64 12C9.864 12 10.032 12.04 10.144 12.12C10.208 12.168 10.256 12.224 10.288 12.288C10.336 12.352 10.36 12.416 10.36 12.48C10.36 12.624 10.288 12.744 10.144 12.84C10.08 12.872 10 12.904 9.904 12.936C9.824 12.952 9.736 12.96 9.64 12.96C9.464 12.96 9.296 12.92 9.136 12.84ZM10.096 12.84C10.032 12.792 9.976 12.736 9.928 12.672C9.896 12.608 9.88 12.544 9.88 12.48C9.88 12.416 9.896 12.352 9.928 12.288C9.976 12.224 10.032 12.168 10.096 12.12C10.224 12.04 10.392 12 10.6 12C10.824 12 10.992 12.04 11.104 12.12C11.168 12.168 11.216 12.224 11.248 12.288C11.296 12.352 11.32 12.416 11.32 12.48C11.32 12.624 11.248 12.744 11.104 12.84C11.04 12.872 10.96 12.904 10.864 12.936C10.784 12.952 10.696 12.96 10.6 12.96C10.424 12.96 10.256 12.92 10.096 12.84ZM11.056 12.84C10.992 12.792 10.936 12.736 10.888 12.672C10.856 12.608 10.84 12.544 10.84 12.48C10.84 12.416 10.856 12.352 10.888 12.288C10.936 12.224 10.992 12.168 11.056 12.12C11.184 12.04 11.352 12 11.56 12C11.784 12 11.952 12.04 12.064 12.12C12.128 12.168 12.176 12.224 12.208 12.288C12.256 12.352 12.28 12.416 12.28 12.48C12.28 12.624 12.208 12.744 12.064 12.84C12 12.872 11.92 12.904 11.824 12.936C11.744 12.952 11.656 12.96 11.56 12.96C11.384 12.96 11.216 12.92 11.056 12.84ZM12.016 12.84C11.952 12.792 11.896 12.736 11.848 12.672C11.816 12.608 11.8 12.544 11.8 12.48C11.8 12.416 11.816 12.352 11.848 12.288C11.896 12.224 11.952 12.168 12.016 12.12C12.144 12.04 12.312 12 12.52 12C12.744 12 12.912 12.04 13.024 12.12C13.088 12.168 13.136 12.224 13.168 12.288C13.216 12.352 13.24 12.416 13.24 12.48C13.24 12.624 13.168 12.744 13.024 12.84C12.96 12.872 12.88 12.904 12.784 12.936C12.704 12.952 12.616 12.96 12.52 12.96C12.344 12.96 12.176 12.92 12.016 12.84ZM12.976 12.84C12.912 12.792 12.856 12.736 12.808 12.672C12.776 12.608 12.76 12.544 12.76 12.48C12.76 12.416 12.776 12.352 12.808 12.288C12.856 12.224 12.912 12.168 12.976 12.12C13.104 12.04 13.272 12 13.48 12C13.704 12 13.872 12.04 13.984 12.12C14.048 12.168 14.096 12.224 14.128 12.288C14.176 12.352 14.2 12.416 14.2 12.48C14.2 12.624 14.128 12.744 13.984 12.84C13.92 12.872 13.84 12.904 13.744 12.936C13.664 12.952 13.576 12.96 13.48 12.96C13.304 12.96 13.136 12.92 12.976 12.84ZM13.936 12.84C13.872 12.792 13.816 12.736 13.768 12.672C13.736 12.608 13.72 12.544 13.72 12.48C13.72 12.416 13.736 12.352 13.768 12.288C13.816 12.224 13.872 12.168 13.936 12.12C14.064 12.04 14.232 12 14.44 12C14.664 12 14.832 12.04 14.944 12.12C15.008 12.168 15.056 12.224 15.088 12.288C15.136 12.352 15.16 12.416 15.16 12.48C15.16 12.624 15.088 12.744 14.944 12.84C14.88 12.872 14.8 12.904 14.704 12.936C14.624 12.952 14.536 12.96 14.44 12.96C14.264 12.96 14.096 12.92 13.936 12.84ZM14.896 12.84C14.832 12.792 14.776 12.736 14.728 12.672C14.696 12.608 14.68 12.544 14.68 12.48C14.68 12.416 14.696 12.352 14.728 12.288C14.776 12.224 14.832 12.168 14.896 12.12C15.024 12.04 15.192 12 15.4 12C15.624 12 15.792 12.04 15.904 12.12C15.968 12.168 16.016 12.224 16.048 12.288C16.096 12.352 16.12 12.416 16.12 12.48C16.12 12.624 16.048 12.744 15.904 12.84C15.84 12.872 15.76 12.904 15.664 12.936C15.584 12.952 15.496 12.96 15.4 12.96C15.224 12.96 15.056 12.92 14.896 12.84Z" fill="currentColor"/>
<path d="M7.216 15.84C7.152 15.792 7.096 15.736 7.048 15.672C7.016 15.608 7 15.544 7 15.48C7 15.416 7.016 15.352 7.048 15.288C7.096 15.224 7.152 15.168 7.216 15.12C7.344 15.04 7.512 15 7.72 15C7.944 15 8.112 15.04 8.224 15.12C8.288 15.168 8.336 15.224 8.368 15.288C8.416 15.352 8.44 15.416 8.44 15.48C8.44 15.624 8.368 15.744 8.224 15.84C8.16 15.872 8.08 15.904 7.984 15.936C7.904 15.952 7.816 15.96 7.72 15.96C7.544 15.96 7.376 15.92 7.216 15.84ZM8.176 15.84C8.112 15.792 8.056 15.736 8.008 15.672C7.976 15.608 7.96 15.544 7.96 15.48C7.96 15.416 7.976 15.352 8.008 15.288C8.056 15.224 8.112 15.168 8.176 15.12C8.304 15.04 8.472 15 8.68 15C8.904 15 9.072 15.04 9.184 15.12C9.248 15.168 9.296 15.224 9.328 15.288C9.376 15.352 9.4 15.416 9.4 15.48C9.4 15.624 9.328 15.744 9.184 15.84C9.12 15.872 9.04 15.904 8.944 15.936C8.864 15.952 8.776 15.96 8.68 15.96C8.504 15.96 8.336 15.92 8.176 15.84ZM9.136 15.84C9.072 15.792 9.016 15.736 8.968 15.672C8.936 15.608 8.92 15.544 8.92 15.48C8.92 15.416 8.936 15.352 8.968 15.288C9.016 15.224 9.072 15.168 9.136 15.12C9.264 15.04 9.432 15 9.64 15C9.864 15 10.032 15.04 10.144 15.12C10.208 15.168 10.256 15.224 10.288 15.288C10.336 15.352 10.36 15.416 10.36 15.48C10.36 15.624 10.288 15.744 10.144 15.84C10.08 15.872 10 15.904 9.904 15.936C9.824 15.952 9.736 15.96 9.64 15.96C9.464 15.96 9.296 15.92 9.136 15.84ZM10.096 15.84C10.032 15.792 9.976 15.736 9.928 15.672C9.896 15.608 9.88 15.544 9.88 15.48C9.88 15.416 9.896 15.352 9.928 15.288C9.976 15.224 10.032 15.168 10.096 15.12C10.224 15.04 10.392 15 10.6 15C10.824 15 10.992 15.04 11.104 15.12C11.168 15.168 11.216 15.224 11.248 15.288C11.296 15.352 11.32 15.416 11.32 15.48C11.32 15.624 11.248 15.744 11.104 15.84C11.04 15.872 10.96 15.904 10.864 15.936C10.784 15.952 10.696 15.96 10.6 15.96C10.424 15.96 10.256 15.92 10.096 15.84ZM11.056 15.84C10.992 15.792 10.936 15.736 10.888 15.672C10.856 15.608 10.84 15.544 10.84 15.48C10.84 15.416 10.856 15.352 10.888 15.288C10.936 15.224 10.992 15.168 11.056 15.12C11.184 15.04 11.352 15 11.56 15C11.784 15 11.952 15.04 12.064 15.12C12.128 15.168 12.176 15.224 12.208 15.288C12.256 15.352 12.28 15.416 12.28 15.48C12.28 15.624 12.208 15.744 12.064 15.84C12 15.872 11.92 15.904 11.824 15.936C11.744 15.952 11.656 15.96 11.56 15.96C11.384 15.96 11.216 15.92 11.056 15.84ZM12.016 15.84C11.952 15.792 11.896 15.736 11.848 15.672C11.816 15.608 11.8 15.544 11.8 15.48C11.8 15.416 11.816 15.352 11.848 15.288C11.896 15.224 11.952 15.168 12.016 15.12C12.144 15.04 12.312 15 12.52 15C12.744 15 12.912 15.04 13.024 15.12C13.088 15.168 13.136 15.224 13.168 15.288C13.216 15.352 13.24 15.416 13.24 15.48C13.24 15.624 13.168 15.744 13.024 15.84C12.96 15.872 12.88 15.904 12.784 15.936C12.704 15.952 12.616 15.96 12.52 15.96C12.344 15.96 12.176 15.92 12.016 15.84ZM12.976 15.84C12.912 15.792 12.856 15.736 12.808 15.672C12.776 15.608 12.76 15.544 12.76 15.48C12.76 15.416 12.776 15.352 12.808 15.288C12.856 15.224 12.912 15.168 12.976 15.12C13.104 15.04 13.272 15 13.48 15C13.704 15 13.872 15.04 13.984 15.12C14.048 15.168 14.096 15.224 14.128 15.288C14.176 15.352 14.2 15.416 14.2 15.48C14.2 15.624 14.128 15.744 13.984 15.84C13.92 15.872 13.84 15.904 13.744 15.936C13.664 15.952 13.576 15.96 13.48 15.96C13.304 15.96 13.136 15.92 12.976 15.84ZM13.936 15.84C13.872 15.792 13.816 15.736 13.768 15.672C13.736 15.608 13.72 15.544 13.72 15.48C13.72 15.416 13.736 15.352 13.768 15.288C13.816 15.224 13.872 15.168 13.936 15.12C14.064 15.04 14.232 15 14.44 15C14.664 15 14.832 15.04 14.944 15.12C15.008 15.168 15.056 15.224 15.088 15.288C15.136 15.352 15.16 15.416 15.16 15.48C15.16 15.624 15.088 15.744 14.944 15.84C14.88 15.872 14.8 15.904 14.704 15.936C14.624 15.952 14.536 15.96 14.44 15.96C14.264 15.96 14.096 15.92 13.936 15.84ZM14.896 15.84C14.832 15.792 14.776 15.736 14.728 15.672C14.696 15.608 14.68 15.544 14.68 15.48C14.68 15.416 14.696 15.352 14.728 15.288C14.776 15.224 14.832 15.168 14.896 15.12C15.024 15.04 15.192 15 15.4 15C15.624 15 15.792 15.04 15.904 15.12C15.968 15.168 16.016 15.224 16.048 15.288C16.096 15.352 16.12 15.416 16.12 15.48C16.12 15.624 16.048 15.744 15.904 15.84C15.84 15.872 15.76 15.904 15.664 15.936C15.584 15.952 15.496 15.96 15.4 15.96C15.224 15.96 15.056 15.92 14.896 15.84Z" fill="currentColor"/>
</svg>
