<svg width="24" height="24" viewBox="0 0 24 24" fill="none" xmlns="http://www.w3.org/2000/svg">
<path d="M2.184 13.14C2.024 13.22 1.856 13.26 1.68 13.26C1.584 13.26 1.496 13.252 1.416 13.236C1.336 13.204 1.256 13.172 1.176 13.14C1.032 13.044 0.96 12.924 0.96 12.78C0.96 12.716 0.976 12.652 1.008 12.588C1.056 12.524 1.112 12.468 1.176 12.42C1.304 12.34 1.472 12.3 1.68 12.3C1.888 12.3 2.056 12.34 2.184 12.42C2.264 12.468 2.32 12.524 2.352 12.588C2.384 12.652 2.4 12.716 2.4 12.78C2.4 12.844 2.384 12.908 2.352 12.972C2.32 13.036 2.264 13.092 2.184 13.14ZM2.184 11.22C2.024 11.3 1.856 11.34 1.68 11.34C1.584 11.34 1.496 11.332 1.416 11.316C1.336 11.284 1.256 11.252 1.176 11.22C1.032 11.124 0.96 11.004 0.96 10.86C0.96 10.796 0.976 10.732 1.008 10.668C1.056 10.604 1.112 10.548 1.176 10.5C1.304 10.42 1.472 10.38 1.68 10.38C1.888 10.38 2.056 10.42 2.184 10.5C2.264 10.548 2.32 10.604 2.352 10.668C2.384 10.732 2.4 10.796 2.4 10.86C2.4 10.924 2.384 10.988 2.352 11.052C2.32 11.116 2.264 11.172 2.184 11.22ZM1.224 12.18C1.064 12.26 0.896 12.3 0.72 12.3C0.624 12.3 0.536 12.292 0.456 12.276C0.376 12.244 0.296 12.212 0.216 12.18C0.072 12.084 0 11.964 0 11.82C0 11.756 0.016 11.692 0.048 11.628C0.096 11.564 0.152 11.508 0.216 11.46C0.344 11.38 0.512 11.34 0.72 11.34C0.928 11.34 1.096 11.38 1.224 11.46C1.304 11.508 1.36 11.564 1.392 11.628C1.424 11.692 1.44 11.756 1.44 11.82C1.44 11.884 1.424 11.948 1.392 12.012C1.36 12.076 1.304 12.132 1.224 12.18ZM3.144 11.22C2.984 11.3 2.816 11.34 2.64 11.34C2.544 11.34 2.456 11.332 2.376 11.316C2.296 11.284 2.216 11.252 2.136 11.22C1.992 11.124 1.92 11.004 1.92 10.86C1.92 10.796 1.936 10.732 1.968 10.668C2.016 10.604 2.072 10.548 2.136 10.5C2.264 10.42 2.432 10.38 2.64 10.38C2.848 10.38 3.016 10.42 3.144 10.5C3.224 10.548 3.28 10.604 3.312 10.668C3.344 10.732 3.36 10.796 3.36 10.86C3.36 10.924 3.344 10.988 3.312 11.052C3.28 11.116 3.224 11.172 3.144 11.22ZM4.104 10.26C3.944 10.34 3.776 10.38 3.6 10.38C3.504 10.38 3.416 10.372 3.336 10.356C3.256 10.324 3.176 10.292 3.096 10.26C2.952 10.164 2.88 10.044 2.88 9.9C2.88 9.836 2.896 9.772 2.928 9.708C2.976 9.644 3.032 9.588 3.096 9.54C3.224 9.46 3.392 9.42 3.6 9.42C3.808 9.42 3.976 9.46 4.104 9.54C4.184 9.588 4.24 9.644 4.272 9.708C4.304 9.772 4.32 9.836 4.32 9.9C4.32 9.964 4.304 10.028 4.272 10.092C4.24 10.156 4.184 10.212 4.104 10.26ZM5.064 10.26C4.904 10.34 4.736 10.38 4.56 10.38C4.464 10.38 4.376 10.372 4.296 10.356C4.216 10.324 4.136 10.292 4.056 10.26C3.912 10.164 3.84 10.044 3.84 9.9C3.84 9.836 3.856 9.772 3.888 9.708C3.936 9.644 3.992 9.588 4.056 9.54C4.184 9.46 4.352 9.42 4.56 9.42C4.768 9.42 4.936 9.46 5.064 9.54C5.144 9.588 5.2 9.644 5.232 9.708C5.264 9.772 5.28 9.836 5.28 9.9C5.28 9.964 5.264 10.028 5.232 10.092C5.2 10.156 5.144 10.212 5.064 10.26ZM6.024 9.3C5.864 9.38 5.696 9.42 5.52 9.42C5.424 9.42 5.336 9.412 5.256 9.396C5.176 9.364 5.096 9.332 5.016 9.3C4.872 9.204 4.8 9.084 4.8 8.94C4.8 8.876 4.816 8.812 4.848 8.748C4.896 8.684 4.952 8.628 5.016 8.58C5.144 8.5 5.312 8.46 5.52 8.46C5.728 8.46 5.896 8.5 6.024 8.58C6.104 8.628 6.16 8.684 6.192 8.748C6.224 8.812 6.24 8.876 6.24 8.94C6.24 9.004 6.224 9.068 6.192 9.132C6.16 9.196 6.104 9.252 6.024 9.3ZM6.984 9.3C6.824 9.38 6.656 9.42 6.48 9.42C6.384 9.42 6.296 9.412 6.216 9.396C6.136 9.364 6.056 9.332 5.976 9.3C5.832 9.204 5.76 9.084 5.76 8.94C5.76 8.876 5.776 8.812 5.808 8.748C5.856 8.684 5.912 8.628 5.976 8.58C6.104 8.5 6.272 8.46 6.48 8.46C6.688 8.46 6.856 8.5 6.984 8.58C7.064 8.628 7.12 8.684 7.152 8.748C7.184 8.812 7.2 8.876 7.2 8.94C7.2 9.004 7.184 9.068 7.152 9.132C7.12 9.196 7.064 9.252 6.984 9.3ZM7.944 8.34C7.784 8.42 7.616 8.46 7.44 8.46C7.344 8.46 7.256 8.452 7.176 8.436C7.096 8.404 7.016 8.372 6.936 8.34C6.792 8.244 6.72 8.124 6.72 7.98C6.72 7.916 6.736 7.852 6.768 7.788C6.816 7.724 6.872 7.668 6.936 7.62C7.064 7.54 7.232 7.5 7.44 7.5C7.648 7.5 7.816 7.54 7.944 7.62C8.024 7.668 8.08 7.724 8.112 7.788C8.144 7.852 8.16 7.916 8.16 7.98C8.16 8.044 8.144 8.108 8.112 8.172C8.08 8.236 8.024 8.292 7.944 8.34ZM8.904 8.34C8.744 8.42 8.576 8.46 8.4 8.46C8.304 8.46 8.216 8.452 8.136 8.436C8.056 8.404 7.976 8.372 7.896 8.34C7.752 8.244 7.68 8.124 7.68 7.98C7.68 7.916 7.696 7.852 7.728 7.788C7.776 7.724 7.832 7.668 7.896 7.62C8.024 7.54 8.192 7.5 8.4 7.5C8.608 7.5 8.776 7.54 8.904 7.62C8.984 7.668 9.04 7.724 9.072 7.788C9.104 7.852 9.12 7.916 9.12 7.98C9.12 8.044 9.104 8.108 9.072 8.172C9.04 8.236 8.984 8.292 8.904 8.34ZM3.144 13.14C2.984 13.22 2.816 13.26 2.64 13.26C2.544 13.26 2.456 13.252 2.376 13.236C2.296 13.204 2.216 13.172 2.136 13.14C1.992 13.044 1.92 12.924 1.92 12.78C1.92 12.716 1.936 12.652 1.968 12.588C2.016 12.524 2.072 12.468 2.136 12.42C2.264 12.34 2.432 12.3 2.64 12.3C2.848 12.3 3.016 12.34 3.144 12.42C3.224 12.468 3.28 12.524 3.312 12.588C3.344 12.652 3.36 12.716 3.36 12.78C3.36 12.844 3.344 12.908 3.312 12.972C3.28 13.036 3.224 13.092 3.144 13.14ZM4.104 14.1C3.944 14.18 3.776 14.22 3.6 14.22C3.504 14.22 3.416 14.212 3.336 14.196C3.256 14.164 3.176 14.132 3.096 14.1C2.952 14.004 2.88 13.884 2.88 13.74C2.88 13.676 2.896 13.612 2.928 13.548C2.976 13.484 3.032 13.428 3.096 13.38C3.224 13.3 3.392 13.26 3.6 13.26C3.808 13.26 3.976 13.3 4.104 13.38C4.184 13.428 4.24 13.484 4.272 13.548C4.304 13.612 4.32 13.676 4.32 13.74C4.32 13.804 4.304 13.868 4.272 13.932C4.24 13.996 4.184 14.052 4.104 14.1ZM5.064 14.1C4.904 14.18 4.736 14.22 4.56 14.22C4.464 14.22 4.376 14.212 4.296 14.196C4.216 14.164 4.136 14.132 4.056 14.1C3.912 14.004 3.84 13.884 3.84 13.74C3.84 13.676 3.856 13.612 3.888 13.548C3.936 13.484 3.992 13.428 4.056 13.38C4.184 13.3 4.352 13.26 4.56 13.26C4.768 13.26 4.936 13.3 5.064 13.38C5.144 13.428 5.2 13.484 5.232 13.548C5.264 13.612 5.28 13.676 5.28 13.74C5.28 13.804 5.264 13.868 5.232 13.932C5.2 13.996 5.144 14.052 5.064 14.1ZM6.024 15.06C5.864 15.14 5.696 15.18 5.52 15.18C5.424 15.18 5.336 15.172 5.256 15.156C5.176 15.124 5.096 15.092 5.016 15.06C4.872 14.964 4.8 14.844 4.8 14.7C4.8 14.636 4.816 14.572 4.848 14.508C4.896 14.444 4.952 14.388 5.016 14.34C5.144 14.26 5.312 14.22 5.52 14.22C5.728 14.22 5.896 14.26 6.024 14.34C6.104 14.388 6.16 14.444 6.192 14.508C6.224 14.572 6.24 14.636 6.24 14.7C6.24 14.764 6.224 14.828 6.192 14.892C6.16 14.956 6.104 15.012 6.024 15.06ZM6.984 15.06C6.824 15.14 6.656 15.18 6.48 15.18C6.384 15.18 6.296 15.172 6.216 15.156C6.136 15.124 6.056 15.092 5.976 15.06C5.832 14.964 5.76 14.844 5.76 14.7C5.76 14.636 5.776 14.572 5.808 14.508C5.856 14.444 5.912 14.388 5.976 14.34C6.104 14.26 6.272 14.22 6.48 14.22C6.688 14.22 6.856 14.26 6.984 14.34C7.064 14.388 7.12 14.444 7.152 14.508C7.184 14.572 7.2 14.636 7.2 14.7C7.2 14.764 7.184 14.828 7.152 14.892C7.12 14.956 7.064 15.012 6.984 15.06ZM7.944 16.02C7.784 16.1 7.616 16.14 7.44 16.14C7.344 16.14 7.256 16.132 7.176 16.116C7.096 16.084 7.016 16.052 6.936 16.02C6.792 15.924 6.72 15.804 6.72 15.66C6.72 15.596 6.736 15.532 6.768 15.468C6.816 15.404 6.872 15.348 6.936 15.3C7.064 15.22 7.232 15.18 7.44 15.18C7.648 15.18 7.816 15.22 7.944 15.3C8.024 15.348 8.08 15.404 8.112 15.468C8.144 15.532 8.16 15.596 8.16 15.66C8.16 15.724 8.144 15.788 8.112 15.852C8.08 15.916 8.024 15.972 7.944 16.02ZM8.904 16.02C8.744 16.1 8.576 16.14 8.4 16.14C8.304 16.14 8.216 16.132 8.136 16.116C8.056 16.084 7.976 16.052 7.896 16.02C7.752 15.924 7.68 15.804 7.68 15.66C7.68 15.596 7.696 15.532 7.728 15.468C7.776 15.404 7.832 15.348 7.896 15.3C8.024 15.22 8.192 15.18 8.4 15.18C8.608 15.18 8.776 15.22 8.904 15.3C8.984 15.348 9.04 15.404 9.072 15.468C9.104 15.532 9.12 15.596 9.12 15.66C9.12 15.724 9.104 15.788 9.072 15.852C9.04 15.916 8.984 15.972 8.904 16.02Z" fill="currentColor"/>
<path d="M21.816 13.14C21.976 13.22 22.144 13.26 22.32 13.26C22.416 13.26 22.504 13.252 22.584 13.236C22.664 13.204 22.744 13.172 22.824 13.14C22.968 13.044 23.04 12.924 23.04 12.78C23.04 12.716 23.024 12.652 22.992 12.588C22.944 12.524 22.888 12.468 22.824 12.42C22.696 12.34 22.528 12.3 22.32 12.3C22.112 12.3 21.944 12.34 21.816 12.42C21.736 12.468 21.68 12.524 21.648 12.588C21.616 12.652 21.6 12.716 21.6 12.78C21.6 12.844 21.616 12.908 21.648 12.972C21.68 13.036 21.736 13.092 21.816 13.14ZM21.816 11.22C21.976 11.3 22.144 11.34 22.32 11.34C22.416 11.34 22.504 11.332 22.584 11.316C22.664 11.284 22.744 11.252 22.824 11.22C22.968 11.124 23.04 11.004 23.04 10.86C23.04 10.796 23.024 10.732 22.992 10.668C22.944 10.604 22.888 10.548 22.824 10.5C22.696 10.42 22.528 10.38 22.32 10.38C22.112 10.38 21.944 10.42 21.816 10.5C21.736 10.548 21.68 10.604 21.648 10.668C21.616 10.732 21.6 10.796 21.6 10.86C21.6 10.924 21.616 10.988 21.648 11.052C21.68 11.116 21.736 11.172 21.816 11.22ZM22.776 12.18C22.936 12.26 23.104 12.3 23.28 12.3C23.376 12.3 23.464 12.292 23.544 12.276C23.624 12.244 23.704 12.212 23.784 12.18C23.928 12.084 24 11.964 24 11.82C24 11.756 23.984 11.692 23.952 11.628C23.904 11.564 23.848 11.508 23.784 11.46C23.656 11.38 23.488 11.34 23.28 11.34C23.072 11.34 22.904 11.38 22.776 11.46C22.696 11.508 22.64 11.564 22.608 11.628C22.576 11.692 22.56 11.756 22.56 11.82C22.56 11.884 22.576 11.948 22.608 12.012C22.64 12.076 22.696 12.132 22.776 12.18ZM20.856 11.22C21.016 11.3 21.184 11.34 21.36 11.34C21.456 11.34 21.544 11.332 21.624 11.316C21.704 11.284 21.784 11.252 21.864 11.22C22.008 11.124 22.08 11.004 22.08 10.86C22.08 10.796 22.064 10.732 22.032 10.668C21.984 10.604 21.928 10.548 21.864 10.5C21.736 10.42 21.568 10.38 21.36 10.38C21.152 10.38 20.984 10.42 20.856 10.5C20.776 10.548 20.72 10.604 20.688 10.668C20.656 10.732 20.64 10.796 20.64 10.86C20.64 10.924 20.656 10.988 20.688 11.052C20.72 11.116 20.776 11.172 20.856 11.22ZM19.896 10.26C20.056 10.34 20.224 10.38 20.4 10.38C20.496 10.38 20.584 10.372 20.664 10.356C20.744 10.324 20.824 10.292 20.904 10.26C21.048 10.164 21.12 10.044 21.12 9.9C21.12 9.836 21.104 9.772 21.072 9.708C21.024 9.644 20.968 9.588 20.904 9.54C20.776 9.46 20.608 9.42 20.4 9.42C20.192 9.42 20.024 9.46 19.896 9.54C19.816 9.588 19.76 9.644 19.728 9.708C19.696 9.772 19.68 9.836 19.68 9.9C19.68 9.964 19.696 10.028 19.728 10.092C19.76 10.156 19.816 10.212 19.896 10.26ZM18.936 10.26C19.096 10.34 19.264 10.38 19.44 10.38C19.536 10.38 19.624 10.372 19.704 10.356C19.784 10.324 19.864 10.292 19.944 10.26C20.088 10.164 20.16 10.044 20.16 9.9C20.16 9.836 20.144 9.772 20.112 9.708C20.064 9.644 20.008 9.588 19.944 9.54C19.816 9.46 19.648 9.42 19.44 9.42C19.232 9.42 19.064 9.46 18.936 9.54C18.856 9.588 18.8 9.644 18.768 9.708C18.736 9.772 18.72 9.836 18.72 9.9C18.72 9.964 18.736 10.028 18.768 10.092C18.8 10.156 18.856 10.212 18.936 10.26ZM17.976 9.3C18.136 9.38 18.304 9.42 18.48 9.42C18.576 9.42 18.664 9.412 18.744 9.396C18.824 9.364 18.904 9.332 18.984 9.3C19.128 9.204 19.2 9.084 19.2 8.94C19.2 8.876 19.184 8.812 19.152 8.748C19.104 8.684 19.048 8.628 18.984 8.58C18.856 8.5 18.688 8.46 18.48 8.46C18.272 8.46 18.104 8.5 17.976 8.58C17.896 8.628 17.84 8.684 17.808 8.748C17.776 8.812 17.76 8.876 17.76 8.94C17.76 9.004 17.776 9.068 17.808 9.132C17.84 9.196 17.896 9.252 17.976 9.3ZM17.016 9.3C17.176 9.38 17.344 9.42 17.52 9.42C17.616 9.42 17.704 9.412 17.784 9.396C17.864 9.364 17.944 9.332 18.024 9.3C18.168 9.204 18.24 9.084 18.24 8.94C18.24 8.876 18.224 8.812 18.192 8.748C18.144 8.684 18.088 8.628 18.024 8.58C17.896 8.5 17.728 8.46 17.52 8.46C17.312 8.46 17.144 8.5 17.016 8.58C16.936 8.628 16.88 8.684 16.848 8.748C16.816 8.812 16.8 8.876 16.8 8.94C16.8 9.004 16.816 9.068 16.848 9.132C16.88 9.196 16.936 9.252 17.016 9.3ZM16.056 8.34C16.216 8.42 16.384 8.46 16.56 8.46C16.656 8.46 16.744 8.452 16.824 8.436C16.904 8.404 16.984 8.372 17.064 8.34C17.208 8.244 17.28 8.124 17.28 7.98C17.28 7.916 17.264 7.852 17.232 7.788C17.184 7.724 17.128 7.668 17.064 7.62C16.936 7.54 16.768 7.5 16.56 7.5C16.352 7.5 16.184 7.54 16.056 7.62C15.976 7.668 15.92 7.724 15.888 7.788C15.856 7.852 15.84 7.916 15.84 7.98C15.84 8.044 15.856 8.108 15.888 8.172C15.92 8.236 15.976 8.292 16.056 8.34ZM15.096 8.34C15.256 8.42 15.424 8.46 15.6 8.46C15.696 8.46 15.784 8.452 15.864 8.436C15.944 8.404 16.024 8.372 16.104 8.34C16.248 8.244 16.32 8.124 16.32 7.98C16.32 7.916 16.304 7.852 16.272 7.788C16.224 7.724 16.168 7.668 16.104 7.62C15.976 7.54 15.808 7.5 15.6 7.5C15.392 7.5 15.224 7.54 15.096 7.62C15.016 7.668 14.96 7.724 14.928 7.788C14.896 7.852 14.88 7.916 14.88 7.98C14.88 8.044 14.896 8.108 14.928 8.172C14.96 8.236 15.016 8.292 15.096 8.34ZM20.856 13.14C21.016 13.22 21.184 13.26 21.36 13.26C21.456 13.26 21.544 13.252 21.624 13.236C21.704 13.204 21.784 13.172 21.864 13.14C22.008 13.044 22.08 12.924 22.08 12.78C22.08 12.716 22.064 12.652 22.032 12.588C21.984 12.524 21.928 12.468 21.864 12.42C21.736 12.34 21.568 12.3 21.36 12.3C21.152 12.3 20.984 12.34 20.856 12.42C20.776 12.468 20.72 12.524 20.688 12.588C20.656 12.652 20.64 12.716 20.64 12.78C20.64 12.844 20.656 12.908 20.688 12.972C20.72 13.036 20.776 13.092 20.856 13.14ZM19.896 14.1C20.056 14.18 20.224 14.22 20.4 14.22C20.496 14.22 20.584 14.212 20.664 14.196C20.744 14.164 20.824 14.132 20.904 14.1C21.048 14.004 21.12 13.884 21.12 13.74C21.12 13.676 21.104 13.612 21.072 13.548C21.024 13.484 20.968 13.428 20.904 13.38C20.776 13.3 20.608 13.26 20.4 13.26C20.192 13.26 20.024 13.3 19.896 13.38C19.816 13.428 19.76 13.484 19.728 13.548C19.696 13.612 19.68 13.676 19.68 13.74C19.68 13.804 19.696 13.868 19.728 13.932C19.76 13.996 19.816 14.052 19.896 14.1ZM18.936 14.1C19.096 14.18 19.264 14.22 19.44 14.22C19.536 14.22 19.624 14.212 19.704 14.196C19.784 14.164 19.864 14.132 19.944 14.1C20.088 14.004 20.16 13.884 20.16 13.74C20.16 13.676 20.144 13.612 20.112 13.548C20.064 13.484 20.008 13.428 19.944 13.38C19.816 13.3 19.648 13.26 19.44 13.26C19.232 13.26 19.064 13.3 18.936 13.38C18.856 13.428 18.8 13.484 18.768 13.548C18.736 13.612 18.72 13.676 18.72 13.74C18.72 13.804 18.736 13.868 18.768 13.932C18.8 13.996 18.856 14.052 18.936 14.1ZM17.976 15.06C18.136 15.14 18.304 15.18 18.48 15.18C18.576 15.18 18.664 15.172 18.744 15.156C18.824 15.124 18.904 15.092 18.984 15.06C19.128 14.964 19.2 14.844 19.2 14.7C19.2 14.636 19.184 14.572 19.152 14.508C19.104 14.444 19.048 14.388 18.984 14.34C18.856 14.26 18.688 14.22 18.48 14.22C18.272 14.22 18.104 14.26 17.976 14.34C17.896 14.388 17.84 14.444 17.808 14.508C17.776 14.572 17.76 14.636 17.76 14.7C17.76 14.764 17.776 14.828 17.808 14.892C17.84 14.956 17.896 15.012 17.976 15.06ZM17.016 15.06C17.176 15.14 17.344 15.18 17.52 15.18C17.616 15.18 17.704 15.172 17.784 15.156C17.864 15.124 17.944 15.092 18.024 15.06C18.168 14.964 18.24 14.844 18.24 14.7C18.24 14.636 18.224 14.572 18.192 14.508C18.144 14.444 18.088 14.388 18.024 14.34C17.896 14.26 17.728 14.22 17.52 14.22C17.312 14.22 17.144 14.26 17.016 14.34C16.936 14.388 16.88 14.444 16.848 14.508C16.816 14.572 16.8 14.636 16.8 14.7C16.8 14.764 16.816 14.828 16.848 14.892C16.88 14.956 16.936 15.012 17.016 15.06ZM16.056 16.02C16.216 16.1 16.384 16.14 16.56 16.14C16.656 16.14 16.744 16.132 16.824 16.116C16.904 16.084 16.984 16.052 17.064 16.02C17.208 15.924 17.28 15.804 17.28 15.66C17.28 15.596 17.264 15.532 17.232 15.468C17.184 15.404 17.128 15.348 17.064 15.3C16.936 15.22 16.768 15.18 16.56 15.18C16.352 15.18 16.184 15.22 16.056 15.3C15.976 15.348 15.92 15.404 15.888 15.468C15.856 15.532 15.84 15.596 15.84 15.66C15.84 15.724 15.856 15.788 15.888 15.852C15.92 15.916 15.976 15.972 16.056 16.02ZM15.096 16.02C15.256 16.1 15.424 16.14 15.6 16.14C15.696 16.14 15.784 16.132 15.864 16.116C15.944 16.084 16.024 16.052 16.104 16.02C16.248 15.924 16.32 15.804 16.32 15.66C16.32 15.596 16.304 15.532 16.272 15.468C16.224 15.404 16.168 15.348 16.104 15.3C15.976 15.22 15.808 15.18 15.6 15.18C15.392 15.18 15.224 15.22 15.096 15.3C15.016 15.348 14.96 15.404 14.928 15.468C14.896 15.532 14.88 15.596 14.88 15.66C14.88 15.724 14.896 15.788 14.928 15.852C14.96 15.916 15.016 15.972 15.096 16.02Z" fill="currentColor"/>
<path d="M10.176 18.66C10.112 18.612 10.056 18.556 10.008 18.492C9.976 18.428 9.96 18.364 9.96 18.3C9.96 18.236 9.976 18.172 10.008 18.108C10.056 18.044 10.112 17.988 10.176 17.94C10.304 17.86 10.472 17.82 10.68 17.82C10.904 17.82 11.072 17.86 11.184 17.94C11.248 17.988 11.296 18.044 11.328 18.108C11.376 18.172 11.4 18.236 11.4 18.3C11.4 18.444 11.328 18.564 11.184 18.66C11.12 18.692 11.04 18.724 10.944 18.756C10.864 18.772 10.776 18.78 10.68 18.78C10.504 18.78 10.336 18.74 10.176 18.66ZM10.176 17.7C10.112 17.652 10.056 17.596 10.008 17.532C9.976 17.468 9.96 17.404 9.96 17.34C9.96 17.276 9.976 17.212 10.008 17.148C10.056 17.084 10.112 17.028 10.176 16.98C10.304 16.9 10.472 16.86 10.68 16.86C10.904 16.86 11.072 16.9 11.184 16.98C11.248 17.028 11.296 17.084 11.328 17.148C11.376 17.212 11.4 17.276 11.4 17.34C11.4 17.484 11.328 17.604 11.184 17.7C11.12 17.732 11.04 17.764 10.944 17.796C10.864 17.812 10.776 17.82 10.68 17.82C10.504 17.82 10.336 17.78 10.176 17.7ZM10.176 16.74C10.112 16.692 10.056 16.636 10.008 16.572C9.976 16.508 9.96 16.444 9.96 16.38C9.96 16.316 9.976 16.252 10.008 16.188C10.056 16.124 10.112 16.068 10.176 16.02C10.304 15.94 10.472 15.9 10.68 15.9C10.904 15.9 11.072 15.94 11.184 16.02C11.248 16.068 11.296 16.124 11.328 16.188C11.376 16.252 11.4 16.316 11.4 16.38C11.4 16.524 11.328 16.644 11.184 16.74C11.12 16.772 11.04 16.804 10.944 16.836C10.864 16.852 10.776 16.86 10.68 16.86C10.504 16.86 10.336 16.82 10.176 16.74ZM11.136 15.78C11.072 15.732 11.016 15.676 10.968 15.612C10.936 15.548 10.92 15.484 10.92 15.42C10.92 15.356 10.936 15.292 10.968 15.228C11.016 15.164 11.072 15.108 11.136 15.06C11.264 14.98 11.432 14.94 11.64 14.94C11.864 14.94 12.032 14.98 12.144 15.06C12.208 15.108 12.256 15.164 12.288 15.228C12.336 15.292 12.36 15.356 12.36 15.42C12.36 15.564 12.288 15.684 12.144 15.78C12.08 15.812 12 15.844 11.904 15.876C11.824 15.892 11.736 15.9 11.64 15.9C11.464 15.9 11.296 15.86 11.136 15.78ZM11.136 13.86C11.072 13.812 11.016 13.756 10.968 13.692C10.936 13.628 10.92 13.564 10.92 13.5C10.92 13.436 10.936 13.372 10.968 13.308C11.016 13.244 11.072 13.188 11.136 13.14C11.264 13.06 11.432 13.02 11.64 13.02C11.864 13.02 12.032 13.06 12.144 13.14C12.208 13.188 12.256 13.244 12.288 13.308C12.336 13.372 12.36 13.436 12.36 13.5C12.36 13.644 12.288 13.764 12.144 13.86C12.08 13.892 12 13.924 11.904 13.956C11.824 13.972 11.736 13.98 11.64 13.98C11.464 13.98 11.296 13.94 11.136 13.86ZM11.136 14.82C11.072 14.772 11.016 14.716 10.968 14.652C10.936 14.588 10.92 14.524 10.92 14.46C10.92 14.396 10.936 14.332 10.968 14.268C11.016 14.204 11.072 14.148 11.136 14.1C11.264 14.02 11.432 13.98 11.64 13.98C11.864 13.98 12.032 14.02 12.144 14.1C12.208 14.148 12.256 14.204 12.288 14.268C12.336 14.332 12.36 14.396 12.36 14.46C12.36 14.604 12.288 14.724 12.144 14.82C12.08 14.852 12 14.884 11.904 14.916C11.824 14.932 11.736 14.94 11.64 14.94C11.464 14.94 11.296 14.9 11.136 14.82ZM12.096 11.94C12.032 11.892 11.976 11.836 11.928 11.772C11.896 11.708 11.88 11.644 11.88 11.58C11.88 11.516 11.896 11.452 11.928 11.388C11.976 11.324 12.032 11.268 12.096 11.22C12.224 11.14 12.392 11.1 12.6 11.1C12.824 11.1 12.992 11.14 13.104 11.22C13.168 11.268 13.216 11.324 13.248 11.388C13.296 11.452 13.32 11.516 13.32 11.58C13.32 11.724 13.248 11.844 13.104 11.94C13.04 11.972 12.96 12.004 12.864 12.036C12.784 12.052 12.696 12.06 12.6 12.06C12.424 12.06 12.256 12.02 12.096 11.94ZM12.096 10.98C12.032 10.932 11.976 10.876 11.928 10.812C11.896 10.748 11.88 10.684 11.88 10.62C11.88 10.556 11.896 10.492 11.928 10.428C11.976 10.364 12.032 10.308 12.096 10.26C12.224 10.18 12.392 10.14 12.6 10.14C12.824 10.14 12.992 10.18 13.104 10.26C13.168 10.308 13.216 10.364 13.248 10.428C13.296 10.492 13.32 10.556 13.32 10.62C13.32 10.764 13.248 10.884 13.104 10.98C13.04 11.012 12.96 11.044 12.864 11.076C12.784 11.092 12.696 11.1 12.6 11.1C12.424 11.1 12.256 11.06 12.096 10.98ZM13.056 8.1C12.992 8.052 12.936 7.996 12.888 7.932C12.856 7.868 12.84 7.804 12.84 7.74C12.84 7.676 12.856 7.612 12.888 7.548C12.936 7.484 12.992 7.428 13.056 7.38C13.184 7.3 13.352 7.26 13.56 7.26C13.784 7.26 13.952 7.3 14.064 7.38C14.128 7.428 14.176 7.484 14.208 7.548C14.256 7.612 14.28 7.676 14.28 7.74C14.28 7.884 14.208 8.004 14.064 8.1C14 8.132 13.92 8.164 13.824 8.196C13.744 8.212 13.656 8.22 13.56 8.22C13.384 8.22 13.216 8.18 13.056 8.1ZM9.216 20.58C9.152 20.532 9.104 20.476 9.072 20.412C9.024 20.348 9 20.284 9 20.22C9 20.156 9.024 20.092 9.072 20.028C9.104 19.964 9.152 19.908 9.216 19.86C9.344 19.78 9.512 19.74 9.72 19.74C9.944 19.74 10.112 19.78 10.224 19.86C10.288 19.908 10.336 19.964 10.368 20.028C10.416 20.092 10.44 20.156 10.44 20.22C10.44 20.364 10.368 20.484 10.224 20.58C10.16 20.612 10.08 20.644 9.984 20.676C9.904 20.692 9.816 20.7 9.72 20.7C9.544 20.7 9.376 20.66 9.216 20.58ZM9.216 21.54C9.152 21.492 9.104 21.436 9.072 21.372C9.024 21.308 9 21.244 9 21.18C9 21.116 9.024 21.052 9.072 20.988C9.104 20.924 9.152 20.868 9.216 20.82C9.344 20.74 9.512 20.7 9.72 20.7C9.944 20.7 10.112 20.74 10.224 20.82C10.288 20.868 10.336 20.924 10.368 20.988C10.416 21.052 10.44 21.116 10.44 21.18C10.44 21.324 10.368 21.444 10.224 21.54C10.16 21.572 10.08 21.596 9.984 21.612C9.904 21.644 9.816 21.66 9.72 21.66C9.544 21.66 9.376 21.62 9.216 21.54ZM14.016 2.34C13.952 2.292 13.896 2.236 13.848 2.172C13.816 2.108 13.8 2.044 13.8 1.98C13.8 1.916 13.816 1.852 13.848 1.788C13.896 1.724 13.952 1.668 14.016 1.62C14.144 1.54 14.312 1.5 14.52 1.5C14.744 1.5 14.912 1.54 15.024 1.62C15.088 1.668 15.136 1.724 15.168 1.788C15.216 1.852 15.24 1.916 15.24 1.98C15.24 2.124 15.168 2.244 15.024 2.34C14.96 2.372 14.88 2.404 14.784 2.436C14.704 2.452 14.616 2.46 14.52 2.46C14.344 2.46 14.176 2.42 14.016 2.34ZM14.016 3.3C13.952 3.252 13.896 3.196 13.848 3.132C13.816 3.068 13.8 3.004 13.8 2.94C13.8 2.876 13.816 2.812 13.848 2.748C13.896 2.684 13.952 2.628 14.016 2.58C14.144 2.5 14.312 2.46 14.52 2.46C14.744 2.46 14.912 2.5 15.024 2.58C15.088 2.628 15.136 2.684 15.168 2.748C15.216 2.812 15.24 2.876 15.24 2.94C15.24 3.084 15.168 3.204 15.024 3.3C14.96 3.332 14.88 3.364 14.784 3.396C14.704 3.412 14.616 3.42 14.52 3.42C14.344 3.42 14.176 3.38 14.016 3.3ZM14.016 4.26C13.952 4.212 13.896 4.156 13.848 4.092C13.816 4.028 13.8 3.964 13.8 3.9C13.8 3.836 13.816 3.772 13.848 3.708C13.896 3.644 13.952 3.588 14.016 3.54C14.144 3.46 14.312 3.42 14.52 3.42C14.744 3.42 14.912 3.46 15.024 3.54C15.088 3.588 15.136 3.644 15.168 3.708C15.216 3.772 15.24 3.836 15.24 3.9C15.24 4.044 15.168 4.164 15.024 4.26C14.96 4.292 14.88 4.324 14.784 4.356C14.704 4.372 14.616 4.38 14.52 4.38C14.344 4.38 14.176 4.34 14.016 4.26ZM13.056 5.22C12.992 5.172 12.936 5.116 12.888 5.052C12.856 4.988 12.84 4.924 12.84 4.86C12.84 4.796 12.856 4.732 12.888 4.668C12.936 4.604 12.992 4.548 13.056 4.5C13.184 4.42 13.352 4.38 13.56 4.38C13.784 4.38 13.952 4.42 14.064 4.5C14.128 4.548 14.176 4.604 14.208 4.668C14.256 4.732 14.28 4.796 14.28 4.86C14.28 5.004 14.208 5.124 14.064 5.22C14 5.252 13.92 5.284 13.824 5.316C13.744 5.332 13.656 5.34 13.56 5.34C13.384 5.34 13.216 5.3 13.056 5.22ZM13.056 6.18C12.992 6.132 12.936 6.076 12.888 6.012C12.856 5.948 12.84 5.884 12.84 5.82C12.84 5.756 12.856 5.692 12.888 5.628C12.936 5.564 12.992 5.508 13.056 5.46C13.184 5.38 13.352 5.34 13.56 5.34C13.784 5.34 13.952 5.38 14.064 5.46C14.128 5.508 14.176 5.564 14.208 5.628C14.256 5.692 14.28 5.756 14.28 5.82C14.28 5.964 14.208 6.084 14.064 6.18C14 6.212 13.92 6.244 13.824 6.276C13.744 6.292 13.656 6.3 13.56 6.3C13.384 6.3 13.216 6.26 13.056 6.18ZM13.056 7.14C12.992 7.092 12.936 7.036 12.888 6.972C12.856 6.908 12.84 6.844 12.84 6.78C12.84 6.716 12.856 6.652 12.888 6.588C12.936 6.524 12.992 6.468 13.056 6.42C13.184 6.34 13.352 6.3 13.56 6.3C13.784 6.3 13.952 6.34 14.064 6.42C14.128 6.468 14.176 6.524 14.208 6.588C14.256 6.652 14.28 6.716 14.28 6.78C14.28 6.924 14.208 7.044 14.064 7.14C14 7.172 13.92 7.204 13.824 7.236C13.744 7.252 13.656 7.26 13.56 7.26C13.384 7.26 13.216 7.22 13.056 7.14ZM12.096 9.06C12.032 9.012 11.976 8.956 11.928 8.892C11.896 8.828 11.88 8.764 11.88 8.7C11.88 8.636 11.896 8.572 11.928 8.508C11.976 8.444 12.032 8.388 12.096 8.34C12.224 8.26 12.392 8.22 12.6 8.22C12.824 8.22 12.992 8.26 13.104 8.34C13.168 8.388 13.216 8.444 13.248 8.508C13.296 8.572 13.32 8.636 13.32 8.7C13.32 8.844 13.248 8.964 13.104 9.06C13.04 9.092 12.96 9.124 12.864 9.156C12.784 9.172 12.696 9.18 12.6 9.18C12.424 9.18 12.256 9.14 12.096 9.06ZM12.096 10.02C12.032 9.972 11.976 9.916 11.928 9.852C11.896 9.788 11.88 9.724 11.88 9.66C11.88 9.596 11.896 9.532 11.928 9.468C11.976 9.404 12.032 9.348 12.096 9.3C12.224 9.22 12.392 9.18 12.6 9.18C12.824 9.18 12.992 9.22 13.104 9.3C13.168 9.348 13.216 9.404 13.248 9.468C13.296 9.532 13.32 9.596 13.32 9.66C13.32 9.804 13.248 9.924 13.104 10.02C13.04 10.052 12.96 10.084 12.864 10.116C12.784 10.132 12.696 10.14 12.6 10.14C12.424 10.14 12.256 10.1 12.096 10.02ZM11.136 12.9C11.072 12.852 11.016 12.796 10.968 12.732C10.936 12.668 10.92 12.604 10.92 12.54C10.92 12.476 10.936 12.412 10.968 12.348C11.016 12.284 11.072 12.228 11.136 12.18C11.264 12.1 11.432 12.06 11.64 12.06C11.864 12.06 12.032 12.1 12.144 12.18C12.208 12.228 12.256 12.284 12.288 12.348C12.336 12.412 12.36 12.476 12.36 12.54C12.36 12.684 12.288 12.804 12.144 12.9C12.08 12.932 12 12.964 11.904 12.996C11.824 13.012 11.736 13.02 11.64 13.02C11.464 13.02 11.296 12.98 11.136 12.9ZM10.176 19.62C10.112 19.572 10.056 19.516 10.008 19.452C9.976 19.388 9.96 19.324 9.96 19.26C9.96 19.196 9.976 19.132 10.008 19.068C10.056 19.004 10.112 18.948 10.176 18.9C10.304 18.82 10.472 18.78 10.68 18.78C10.904 18.78 11.072 18.82 11.184 18.9C11.248 18.948 11.296 19.004 11.328 19.068C11.376 19.132 11.4 19.196 11.4 19.26C11.4 19.404 11.328 19.524 11.184 19.62C11.12 19.652 11.04 19.684 10.944 19.716C10.864 19.732 10.776 19.74 10.68 19.74C10.504 19.74 10.336 19.7 10.176 19.62ZM9.216 22.5C9.152 22.452 9.104 22.396 9.072 22.332C9.024 22.268 9 22.204 9 22.14C9 22.076 9.024 22.012 9.072 21.948C9.104 21.884 9.152 21.828 9.216 21.78C9.344 21.7 9.512 21.66 9.72 21.66C9.944 21.66 10.112 21.7 10.224 21.78C10.288 21.828 10.336 21.884 10.368 21.948C10.416 22.012 10.44 22.076 10.44 22.14C10.44 22.284 10.368 22.404 10.224 22.5C10.16 22.532 10.08 22.556 9.984 22.572C9.904 22.604 9.816 22.62 9.72 22.62C9.544 22.62 9.376 22.58 9.216 22.5Z" fill="currentColor"/>
</svg>
